<mxfile host="65bd71144e">
    <diagram id="HIP3nbAZw_EuaXWnEj3U" name="Page-1">
        <mxGraphModel dx="2128" dy="1927" grid="1" gridSize="10" guides="1" tooltips="1" connect="1" arrows="1" fold="1" page="1" pageScale="1" pageWidth="850" pageHeight="1100" math="0" shadow="0">
            <root>
                <mxCell id="0"/>
                <mxCell id="1" parent="0"/>
                <mxCell id="5" value="" style="shape=image;verticalLabelPosition=bottom;labelBackgroundColor=default;verticalAlign=top;aspect=fixed;imageAspect=0;image=data:image/png,iVBORw0KGgoAAAANSUhEUgAAA88AAAMTCAYAAACfdyWXAAAAAXNSR0IArs4c6QAAIABJREFUeAHs3Q/UXXV95/uvQLrGIhemjnqjM01VahhYWbEVapmKklmLxHKBRltJrLr8UzDCdQZpjagjyWM6K/UPiwa0t+Jyyrq3SanicqgMtrXEP4g2Ch3thHsJilAstliDJVijAXXf9Tnsz+OX/ZxznvNvn7PPOe+91sk++9/vz2v/zj7nk32e54lgQgABBBBAAAEEEEAAAQQQQAABBBBAAAEEEEAAAQQQQAABBBBAAAEEEEAAAQQQQAABBBBAAAEEEEAAAQQQQAABBBBAAAEEEEAAAQQQQAABBBBAAAEEEEAAAQQQQAABBBBAAAEEEEAAAQQQQAABBBBAAAEEEEAAAQQQQAABBBBAAAEEEEAAAQQQQAABBBBAAAEEEEAAAQQQQAABBBBAAAEEEEAAAQQQQAABBBBAAAEEEEAAAQQQQAABBBBAAAEEEEAAAQQQQAABBKZR4IkR8YGI+JU+G/+KiLi8PGZ1RFwXEU/us4zldlebvhIRKr/d5LYXqS3t9htkXe6f2iEj1ceEAAIIIIAAAggggAACCCAwhwIOoE0Lz2rXe8qHgmy7SWFdoXbUoV115fDcrm7WIYAAAggggAACCCCAAAIIzJGAw/Pry7u8uovrsFq94+pAqfXaT4/fi4i/KJ9rriDrMr2Pg7nmukOth7Z1u6usu80Kz8/tcFdb9bhelbO2cgdd21WPylmuXvXLbdXz3D/dXddyvvOsdXl/DRf3OW/znfk5Gk50FQEEEEAAAQQQQAABBBCYTQGHPgdfhc2/TKEzh0aHZ0nk5zomf21bodHHKXg6JDuUau56OwVMla+HJu2jY6pTDsguz/vlbd3q1Ta3NR+T+5f30fpspb5pu+t3WVrnflfbzTICCCCAAAIIIIAAAggggMCUCTj0Oaiq+QqrWs6hUetzoMzPc3h2eTpWk5ddnoOntuUyHtv7sX91jO46q1xNKqtdyM5h1/W43rxN6zrV676WVS3Octt0vENxdX8t6+H6dZymXH+5ihkCCCCAAAIIIIAAAggggMC0Cjj0OXSqHw6IOTRqfQ6U+XkOzwqNCqr9lpf9VJ7u2vqr0Zrn8Ot9c0Ct9iNv69QPH+PA63KrffXxP1OG6Ly/HVyW+53rz+XyHAEEEEAAAQQQQAABBBBAYAoFHPocCPOyQ6PWafJdVj13aNTzHJ59vEOkl7V/tbxcRquC8p9cj9c70HtZ8xxQXY/rVZt6+fp5u3JVdm5bbnd1f7e1Wn9uW24zzxFAAAEEEEAAAQQQQAABBKZQwKHPX0uuhk7/3K7CoO7+KixqyuEyh2dt0z4uT8HTZeQQWi2jVWgZiKt3rr2vy8z7+peCuR+5fb3Uq364XPdR7cz9y+3Wet8FV79Vh7a7fj3XRHguIZghgAACCCCAAAIIIIAAArMg4NCXf9u2A6D6pzDqr01fmsKz9tF6bXfodKh0mf7atcvT3EFVZeeAakvt43K8TvMcVL2+GlC9j+pVWx2sl6vXfdRxapMmHeP+VY9vt7/7rH01VdtWrmaGAAIIIIAAAggggAACCCCAAAIIIIAAAggggAACCCCAAAIIIIAAAggggAACCCCAAAIIIIAAAggggAACCCCAAAIIIIAAAggggAACCCCAAAIIIIAAAggggAACCCCAwHgFjouI50TEiyJic/mLurZHRFMf+kViaqfaq3ar/UwIIIAAAggggAACCCCAAAIIjFTg1IjYFhFfjIhD5W+k9m/Vnta5+qH+qF/qHxMCCCCAAAIIIIAAAggggAACfQucHRHvj4h7qmH52GOPLU488cTijDPOKM4///zikksuKRYWFhr7UPvUTrVX7Vb7q30q+6n+qt9MCCCAAAIIIIAAAggggAACCHQV+K2I+FoOl6tWrSouuuii4sYbbyweeuihYhYm9UP9Ub/Uv9zfsv9yYEIAAQQQQAABBBBAAAEEEEDgcQK/ERG3O0SeeuqpxbZt24p9+/bNQlZetg/qp/qrftug9JALEwIIIIAAAggggAACCCCAwJwLrI+ITzkwrl69urj22muXDZuzvIP6LweblD5yYkIAAQQQQAABBBBAAAEEEJhDgbc4IK5cubLYtWvXLGfivvt21VVXFXKxUUTIiwkBBBBAAAEEEEAAAQQQQGCOBD7kULh9+/bikUce6TtczsMBcpGPrSJCbkwIIIAAAggggAACCCCAAAIzLvDMiLhFYXDFihXFnj175iEDD91HOcmrDNHykyMTAggggAACCCCAAAIIIIDADAqsi4gHFABPPvnk4rbbbhs6VM5TAfKSWxmg5ShPJgQQQAABBBBAAAEEEEAAgRkSeFZEfFPBb+PGjcWhQ4fmKfeOrK9yk18ZoOUpVyYEEEAAAQQQQAABBBBAAIEZEDg6Ir6gwHfeeeeNLEjOc0FyLAO0XOXLhAACCCCAAAIIIIAAAgggMOUC1ynorV27tnj44YfnOfOOrO9ylGcZoOXLhAACCCCAAAIIIIAAAgggMMUC71LAO+GEE4r9+/ePLDxSUFHccccdLdcyQMuZCQEEEEAAAQQQQAABBBBAYAoFNpbBrrjpppvIuzUIyNXGESFvJgQQQAABBBBAAAEEEEAAgSkTuF3B7oorrqghNlKkBeRbBmh5MyGAAAIIIIAAAggggAACCEyRwBsU6E466SRnPOY1Csi5DNByZ0IAAQQQQAABBBBAAAEEEJgCgRVHH330PyrM7d69u8bISNEWkLO8S/cVUzBGaCICCCCAAAIIIIAAAgggMPcC71SQW7dunbMd8zEIyLu8+yx/JgQQQAABBBBAAAEEEEAAgQYLnBARP1KI27t37xgiI1VY4Oabb3Z4lr/OAxMCCCCAAAIIIIAAAggggEBDBV6l4HzWWWc50zEfo4Dcy7vPOg9MCCCAAAIIIIAAAggggAACDRX4iMLb1VdfPcbISFUWkHsZnnUemBBAAAEEEEAAAQQQQAABBBoocMxRRx11ROHt3nvvdZ5jPkYBucu/PA/HNHCM0CQEEEAAAQQQQAABBBBAYO4FXqLgdvrpp48xLlJVVUD+5d1nnQ8mBBBAAAEEEEAAAQQQQACBhgn8kULbzp07q3mO5TEKyL8MzzofTAgggAACCCCAAAIIIIAAAg0T+IZC2/79+8cYFamqKiD/MjzrfDAhgAACCCCAAAIIIIAAAgg0TOCHCm1Hjhyp5rmJL+/YscOBsjW/9dZbF9ukbbt3715c7vXJoMf1Wv6g+8m/DM86H0wIIIAAAggggAACCCCAAAINElipwPbUpz510MxX23EKuVu2bCkOHz7cquPAgQPF2rVrCwfoQUPwoMfV1tFUsM5DGaB1XpgQQAABBBBAAAEEEEAAAQQaIvA8hbXnPve5KcJN/qkCs4Jz9c6ygq/DbxkyF/fRvl6nkK2w7XI2bdrU2rZt27bFfaplT77XRes8lH3QeWFCAAEEEEAAAQQQQAABBBBoiMC5Cmtnn312E7Lj49rgMKyw3G5yiNY23Y3esGFDcfDgwdauDtkOz7mMfFy7cie5TuehDM86L0wIIIAAAggggAACCCCAAAINEdiisHbBBRdMMjN2rFthWKG4DJStu87euVsIVvDWdofnfJe523Eue1JznYeyrzovTAgggAACCCCAAAIIIIAAAg0R2K6wpq8zN32qBuEcgr3NIVvzHJ79c9LqYz6uaX1OXyvXeWFCAAEEEEAAAQQQQAABBBBoiEAj7zzrjrN+5tlfw3bI9R3lagjW+vzLxbyfQ/W0hGfuPDfkVUEzEEAAAQQQQAABBBBAAIGKQGN/5ll3iPXw5K9w+yvY+Q5yDs/eT9unLTzzM8+V0ckiAggggAACCCCAAAIIINAQgUb+tm0HZgXg/FVsB2dt13Nt09yBWcv6GekbbrihdSf6wQcfbM3zned8nOtpyly/9bzsL79tuyEvEJqBAAIIIIAAAggggAACCEigsX/nuSmBdpzt4O8886JEAAEEEEAAAQQQQAABBJor8EPd7Txy5Mg4cyJ1VQTkX9511vlgQgABBBBAAAEEEEAAAQQQaJjANxTa9u/fX4lzLI5TQP5leNb5YEIAAQQQQAABBBBAAAEEEGiYwB8ptO3cuXOcWZG6KgLyL8OzzgcTAggggAACCCCAAAIIIIBAwwReotB2+umnV+Ici+MUkH8ZnnU+mBBAAAEEEEAAAQQQQAABBBomcMxRRx11RMHt3nvvHWdepK5SQO7yL8/DMQ0bHzQHAQQQQAABBBBAAAEEEECgFPiIwtvVV19NoJ2AgNzLu846D0wIIIAAAggggAACCCCAAAINFXiVwttZZ501gehIlXIvw7POAxMCCCCAAAIIIIAAAggggEBDBU6IiB8pwN18882k2TEK7N2718FZ/joPTAgggAACCCCAAAIIIIAAAg0WeKfC87p168YYHalK3uVdZ/kzIYAAAggggAACCCCAAAIINFxgxdFHH/2PCnK7d+8m1Y5BQM7yLt1XNHx80DwEEEAAAQQQQAABBBBAAIFS4A0KcyeddNIYoiNVyLm86yx3JgQQQAABBBBAAAEEEEAAgSkSuF2B7oorriDd1igg3zI4y5sJAQQQQAABBBBAAAEEEEBgygQ2lqGuuOmmm2qMj/NbtFxtHBHyZkIAAQQQQAABBBBAAAEEEJhCgXcp3J1wwgnFHXfcMb8pt4ae79+/v+Vahmc5MyGAAAIIIIAAAggggAACCEyxwHUKeGvXri0efvjhGmLk/BUpR3mWwVm+TAgggAACCCCAAAIIIIAAAlMucHREfEFB77zzzpu/pFtDj+VYBme5ypcJAQQQQAABBBBAAAEEEEBgBgSeFRHfVODbuHFjcejQoRoi5ewXKTf5lcFZnnJlQgABBBBAAAEEEEAAAQQQmCGBdRHxgILfySefXNx2222zn3ZH2EN5ya0MznKUJxMCCCCAAAIIIIAAAggggMAMCjwzIm5RAFyxYkWxZ8+eEcbL2S1KTvIqg7P85MiEAAIIIIAAAggggAACCCAw4wIfKoNgsX379uKRRx6Z3eQ7RM/kIh9bRYTcmBBAAAEEEEAAAQQQQAABBOZI4C0OhStXriyuuuqqIWLm7B26a9euQi42igh5MSGAAAIIIIAAAggggAACCMyhwPqI+JQD4urVq4trr7129pJwHz1S/+Vgk9JHTkwIIIAAAggggAACCCCAAAJzLvAbEXG7A+Opp55abNu2rdi3b18fsXN6d1U/1V/12walh1yYEEAAAQQQQAABBBBAAAEEEHicwG9FxNdSgCxWrVpVXHTRRcWNN95YPPTQQ9ObkFPL1Q/1R/1S/3J/y/7LgQkBBBBAAAEEEEAAAQQQQACBrgJnR8T7I+KeSrAsjj322OLEE08szjjjjOL8888vLrnkkmJhYaGxD7VP7VR71W61v9qnsp/qr/rNhAACCCCAAAIIIIAAAggggEDfAqdGxLaI+GJEHGoTPNuF0aavUz/UH/VL/WNCAAEEEEAAAQQQQAABBBBAYKQCx0XEcyLiRRGxOSIujYjtI3woeI+yPLVP7VR71W61nwkBBBBAAAEEEEAAAQQQQACBqRZQeGZCAAEEEEAAAQQQQAABBBBAAIEuAoTnLjhsQgABBBBAAAEEEEAAAQQQQEAChGfGAQIIIIAAAggggAACCCCAAALLCBCelwFiMwIIIIAAAggggAACCCCAAAKEZ8YAAggggAACCCCAAAIIIIAAAssIEJ6XAWIzAggggAACCCCAAAIIIIAAAoRnxgACCCCAAAIIIIAAAggggAACywgQnpcBYjMCCCCAAAIIIIAAAggggAAChGfGAAIIIIAAAggggAACCCCAAALLCBCelwFiMwIIIIAAAggggAACCCCAAAKEZ8YAAggggAACCCCAAAIIIIAAAssIEJ6XAWIzAggggAACCCCAAAIIIIAAAoRnxgACCCCAAAIIIIAAAggggAACywgQnpcBYjMCCCCAAAIIIIAAAggggAACj0bEMTAggAACCCCAAAIIIIAAAggggEBnge9GxJM6b2YLAggggAACCCCAAAIIIIAAAgh8OyL+DQwIIIAAAggggAACCCCAAAIIINBZ4O8j4t923swWBBBAAAEEEEAAAQQQQAABBBD4WkScCAMCCCCAAAIIIIAAAggggAACCHQW2B8RazpvZgsCCCCAAAIIIIAAAggggAACCNwWEaeVDE+AAwEEEEAAAQQQQAABBBBAAAEEIp4TEf8UEW+PiOMi4nMRcUZEvDoiHiqXcUIAAQQQQAABBBBAAAEEEEBg7gXujIjvR8SRiPhWRPxdRPxzRByOiDPnXgcABBBAAAEEEEAAAQQQQAABBCJiQ0To7zsXZWD+cfn8S+gggAACCCCAAAIIIIAAAggggMBPBD4ZEQ7NCtEPR8RLf7KZZwgggAACCCCAAAIIIIAAAgggoF8Spq9uKzjr8XVIEEAAAQQQQAABBBBAAAEEEEBgqcB1EfGjiPheRFywdDNrEEAAAQQQQAABBBBAAAEEEEDg2WV4/g4UCCCAAAIIIIAAAggggAACCExCYF1EvCkitjf8cUdEfL7hbZShLGXKhAACCCCAAAIIIIAAAgggMAMCCnn3pZ8l9s8UM//Jz1cPYyFbGTMhgAACCCCAAAIIIIAAAghMocAxEXGDQ/OaNWuKiy++uFhYWOAxAgNZytS+pbXMmRBAAAEEEEAAAQQQQAABBKZIoBWcV65cWVx//fUFUz0CspVxGaJlzoQAAggggAACCCCAAAIIIDAlAvoacSvU3XnnnfWkRkpdFJBxCtB8hXtKXiQ0EwEEEEAAAQQQQAABBBBo/Ywzd5wX823tT2Rd3n2WPRMCCCCAAAIIIIAAAggggEDDBfQboFs/j1t7YqSCxwmkn4Hmt3A3/EVC8xBAAAEEEEAAAQQQQACB1le29QutmMYrIPPy7jNf3eZ1iAACCCCAAAIIIIAAAgg0XEB/g7j1G7XHGx2pTb/JvAzPOgdMCCCAAAIIIIAAAggggAACDRYgPE8oxxOeG/yqoGkIIIAAAggggAACCCCAQEWA8Ex4rgwJFhFAAAEEEEAAAQQQQAABBKoChGfCc3VMsIwAAggggAACCCCAAAIIIFARIDwTnitDgkUEEEAAAQQQQAABBBBAAIGqAOGZ8FwdEywjgAACCCCAAAIIIIAAAghUBAjPhOfKkGARAQQQQAABBBBAAAEEEECgKkB4JjxXxwTLCCCAAAIIIIAAAggggAACFYGRhecdO3YUu3fvHmkUVXnl30JuzUdd/qCNPXjwYLFly5ZCc/X71ltv7buo9KeqFirnhEUEEEAAAQQQQAABBBBAAIGGCTQ2PCsob9iwoRVQlUwVVLXchACdA3MO0v0k6BSedQ6YEEAAAQQQQAABBBBAAAEEGiwwUHjOd4QdZvOd58OHD7fuzPqucb4zm49du3ZtceDAgVbm1PGbNm1avMOsZT3ypGN1x1fla8pl5XbkcrSfynFbvJ/Wd2qn2rt58+bWQ8fldqq9W7duXWyD25HL1brlphSeufPc4BcITUMAAQQQQAABBBBAAAEEJNB3eFawdIDVXVeFTAVKBVQHyBx8tb/Dp57nu8l5Pz13uQqe2lfBNa/LgbRbO/IxapOX1U61RcdqyvVrXW6n6tY6B2ztq0nluZ+tFUXR6n81UHtbp3kKz9x55rWIAAIIIIAAAggggAACCDRcoO/wrBBZDY8KiF7vr1c7oDp8ejmHSZXjUKq5n3sfH+u7xg7BuT7v63kux8fn9mq7lru1U23NIb/azmpfBvnqNuG54a8MmocAAggggAACCCCAAAIIJIG+wnO7MJpDaw6lDryea5uP9zrNHZgdal1eu7mDsctRmdUpl+P9cn2u0+G5uk1lKhznoK51KtfljTg887XtNCB5igACCCCAAAIIIIAAAgg0UaCv8KygmsNpDq5er1Dqr3Ln7XquENoulFbLVUjV16D989AuJ4da1+dtnuf1ncKu9u3WzlyP9nV41nOVP+LwzNe2m/jKoE0IIIAAAggggAACCCCAQBLoOzznAOy7twqTObTquR6a8s8ZtzvW++XjHVhz0HYQ9v7tyqq2o1qO26tjNaksl5fb2S0861gf3ypk+J955s5zGpA8RQABBBBAAAEEEEAAAQSaKNB3eHbo9NedHSRz+HXQre7j8Kr1+pniG264YfFOdD7eoVRluwzNHXS9Xcve3q4d7fbLZXRqZ7fwrJBd/eVgqtv1u87l5vzMcxNfDrQJAQQQQAABBBBAAAEEEGgvMFB4Xi4Yzvp2BXAFbE36DwHdIde8n4nw3H5AshYBBBBAAAEEEEAAAQQQaKIA4bmfxFvumwNzDtL9FEV4buLLgTYhgAACCCCAAAIIIIAAAu0FCM/9JN4R7kt4bj8gWYsAAggggAACCCCAAAIINFGA8DzCQNxPUYTnJr4caBMCCCCAAAIIIIAAAggg0F6A8NxP4h3hvoTn9gOStQgggAACCCCAAAIIIIBAEwUIzyMMxP0URXhu4suBNiGAAAIIIIAAAggggAAC7QUIz/0k3hHuS3huPyBZiwACCCCAAAIIIIAAAgg0UYDwPMJA3E9RhOcmvhxoEwIIIIAAAggggAACCCDQXoDw3E/iHeG+hOf2A5K1CCCAAAIIIIAAAggggEATBQjPIwzE/RRFeG7iy4E2IYAAAggggAACCCCAAALtBd4UEcXFF1/cT+5j3xEIyFz2EaFzwIQAAggggAACCCCAAAIIINBggXUKcGvWrBlBHKSIfgRkXoZnnQMmBBBAAAEEEEAAAQQQQACBhgvcpxB3/fXX95P92HcIAVmXwVn2TAgggAACCCCAAAIIIIAAAlMg0Prq9sqVK4s777xziEjIob0IyFjWZXjmK9tT8AKhiQgggAACCCCAAAIIIICABW5QmFOo4w50LxF4sH1km4KzzJkQQAABBBBAAAEEEEAAAQSmSOCYiGgFaIVo/TyufqGVfiM0j+ENZJl+xll3nWUtcyYEEEAAAQQQQAABBBBAAIEpFNDXiFs/A11+rdhfL2b+2G/GHtZBtnxVewpfGDQZAQQQQAABBBBAAAEEEGgnoN8ArZCnvwOdHwuV5bzNz7vto23dtquM5ba7Hs0/XT56OW65unupt5d9cvv8XJb8Vu12I411CCCAAAIIIIAAAggggAACtQs4ENdeERUggAACCCCAAAIIIIAAAgggMK0ChOdpPXO0GwEEEEAAAQQQQAABBBBAYGwChOexUVMRAggggAACCCCAAAIIIIDAtAoQnqf1zNFuBBBAAAEEEEAAAQQQQACBsQkQnsdGTUUIIIAAAggggAACCCCAAALTKkB4ntYzR7sRQAABBBBAAAEEEEAAAQTGJkB4Hhs1FSGAAAIIIIAAAggggAACCEyrAOF5Ws8c7UYAAQQQQAABBBBAAAEEEBibAOF5bNRUhAACCCCAAAIIIIAAAgggMK0ChOdpPXO0GwEEEEAAAQQQQAABBBBAYGwChOexUVMRAggggAACCCCAAAIIIIDAtAoQnqf1zNFuBBBAAAEEEEAAAQQQQACBsQkoPL9zbLVREQIIIIAAAggggAACCCCAAAJTKLA9IhSgmRBAAAEEEEAAAQQQQAABBBBAoIPA5RGxo8M2ViOAAAIIIIAAAggggAACCCCAQET8l4j4r0gggAACCCCAAAIIIIAAAggggEBngbdFxM7Om9mCAAIIIIAAAggggAACCCCAAAKXRcS7YEAAAQQQQAABBBBAAAEEEEAAgccLnJAWt0bEe9Lyz6fnPEUAAQQQQAABBBBAAAEEEEBgLgX+VUT8z4jYGxG/HBFvjoj3RsTzIuLTEXFfRDx5LmXoNAIIIIAAAggggAACCCCAAAJJ4B0R8YOIOBQRX4+Ib0TE9yLiSBmk0648RQABBBBAAAEEEEAAAQQQQGA+BY6JiIcjooiIRyLi++XzH0fE0+aThF4jgAACCCCAAAIIIIAAAgggsFTgreXdZwVoh+irlu7GGgQQQAABBBBAAAEEEEAAAQTmW+Cfy+DsAP2M+eag9wgggAACCCCAAAIIIIAAAggsFfid8ivbj0bEHy7dzBoEEEAAAQQQQAABBBBAAAEEEJDAdyLiRxGxCg4EEEAAAQQQQAABBBBAAIHhBZ4bEVsiYjuPmTL4TEQc4JzO1DnVa1SvVb1mmRBAAAEEEEAAAQQQQGBMAr8WEX9d+dlY/4ws88d+2RYOODR1DOi1q9cwEwIIIIAAAggggAACCNQosNOh+WlPe1rx6le/uti2bVuxsLDAAwPGQEPHgF6jeq3qNevXb0TotcyEAAIIIIAAAggggAACNQjoq5+tD9/vfve7CyYEEJg+Ab12/Touv5pfw6WCIhFAAAEEEEAAAQQQmF+BX/YH7g9/+MPTlxhoMQIILAroNezXc0Totc2EAAIIIIAAAggggAACIxK4Th+23/zmNy9+AOcJAghMr4Bey2WA1mubCQEEEEAAAQQQQAABBEYgcHREPKIP2vfdd9/0pgVajgACiwJ6LZfhWa9tvcaZEEAAAQQQQAABBBBAYEgB/Xmb4pRTTln84M0TBBCYfgG9pssAzZ+wGvIiyeEIIIAAAggggAACCEjgTH3APvPMM6c/LdADBBBYFNBrugzPeo0zIYAAAggggAACCCCAwJAChOfFuMETBGZHgPA85JWRwxFAAAEEEEAAAQQQqAgQnmcnL9ETBBYFCM+VKx2LCCCAAAIIIIAAAggMKUB4XowbPEFgdgQIz0NeGTkcAQQQQAABBBBAAIGKAOF5dvISPUFgUYDwXLnSsYgAAggggAACCCCAwJAChOfFuMETBGZHgPA85JWRwxFAAAEEEEAAAQQQqAgQnmcnL9ETBBYFCM+VKx2LCCCAAAIIIIAAAggMKUB4XowbPEFgdgQIz0NeGTkcAQQQQAABBBBAAIGKwMyH5x07dhS7d+9upaL8fHZi0vh6cuDAgWLz5s3dZ7RpAAAgAElEQVTFwYMHl61U+65du9Z/a7jYsmVLcfjw4WWPyztofx136623tupU3Sq3l0nn3Odd7d2wYUOrLf20Q+NFfytZ/XC9mm/durXvvvTS5lHuQ3iuXOlYRAABBBBAAAEEEEBgSIGZD885kBCes0b/zxUcewnP2k+BU6HXk+z7Ca4+znMF4F7Dcw64DuAO0mqHHstN2t/tVT8Uvv2fBjmYL1fOpLYTnoe8MnI4AggggAACCCCAAAIVgcaHZwUd3f3Tw6HHIe7KK69ccmdQQWf9+vWt8Kbwc/nll7fuQCrwuJwcpKrrhgk7qtvlqa0OXyoz1+87mQ5211xzzeJdWu3nPufA5n1dfg6m1Tb7eO2r/Xzspk2bWu3L69qVl/vhMvLdW7fLIVn7eJ3aouPzstZpX50XzbVdNrqDm4+ttnPv3r2t/TzXvlU7rdNDZXpS/71cDd3t2ubj8lxleJy477lMtd9hOh/XlOeE58qVjkUEEEAAAQQQQAABBIYUaHR4VlhxAFWwUthS+HJoU8DRpJDj/XSMA5a25RCUn+djXJ7DUQ5A2s8BzfNcvvfNAcshMLcph0m1Q492+6kO1elteu5+6BhN1T62Vpb/aH/vp37pbu3999/f8vF67arnXs7l6RiHXO2n8twPl6e+5v66PO/nbe2ctK/qcz99rNriPrtdXtb+KjPfee7Ufu2ndmiuKbfZy7l/rZ0q/+R6tcnLPhdap/rVrqZOhOchr4wcjgACCCCAAAIIIIBARWBqwnMOKdWAl4OVAk01qDr0KPDoeacw5P1yXb0+V70OjzqmupzLUT1qS7Ud1aDn9qp/6pPDmo/zsstebr3712t51X7k9qnu7Jy3uT2qr91/OHQ61iHf7cz9yee4W/vVjvwzye3qWi48dyrf7VL/9Dwvu89NmROeK1c6FhFAAAEEEEAAAQQQGFKg0eHZIcUBzGGlGtRysFJYyiHWAVRl+blDmcv1XNsHndS2XG9uR7v6VJfXa19N1X65vQ5zbqfn9nCbvZ/L8/pqPd7P5Xju8lSv12nufuX2qY68j553utOsdmh/h209d5m53w7Pbn9udz7H3drfqWwd47qWC8+5Xh3jZftonZ7n5VbhDfqH8DzklZHDEUAAAQQQQAABBBCoCDQ+PDuPOMAoHCnE5QCUl6vhyQFU5fh5Lsvld5orIPUSEqv15mWVkcOiltWWajtyOM3tzcGxUzu1vlqe962u71ae2u2Qq+NzP3L78nrX47n6p0eecp3t6lCd/YTn/BXuXI/amO8853q1X7XufGx+7rGidSpD7dOxntr10duaMCc8V650LCKAAAIIIIAAAgggMKRAo8OzQ6bCiAJg9WeeHdA0dzithrocgvLzfIzDkcsbJPy4DNXvsOo2taurn/Cs9mh/PTQpIOoubw5zbnN1P/0nw1e+8pWWT96/up/L0z4Oz9V+5PCc+6u61Ucfp/3yf25Ut6sO/YeE2+O2uD6vz8uqLwdmH1P10H5y11yTy/C5zce1dujwTz5n2cS7qxy30+uaNCc8D3ll5HAEEEAAAQQQQAABBCoCjQ7PDj6+8+sA5BCnkKRtDm0KLwo0Dq1aVsjxcZprfy9rm8vW82En1a3yFET1G7TdDgdNt/WGG25obXvwwQdbc4cw98vBL7e9k4X2zaGyup/K9jrXo356nftvk7xe/VBbVb7qcT/srfZqH/dZy57yNvfb/VI7VKYe2mYn1+125mU/V30q28vV9qt+ubkMLbvduS6tVznum9ud5x4frtPbVJ7a7P54fZPmhOfKlY5FBBBAAAEEEEAAAQSGFGh0eO4URpYLPZ2OG+d6BS89mJYKKNg6MC/dOvwajY/81e1uJX7wgx/sOwTrPxr8nw3dyp7kNsLzkFdGDkcAAQQQQAABBBBAoCJAeB5RwlFg813Y6h3OEVUxM8XUHZ4F1UvA1Z1jhed+pn6CeT/ljnpfwnPlSsciAggggAACCCCAAAJDCkxleB510KA8BGZNgPA85JWRwxFAAAEEEEAAAQQQqAgQnmctNdEfBIqiIDxXrnQsIoAAAggggAACCCAwpADhmaiFwAwKEJ6HvDJyOAIIIIAAAggggAACFQHC8wwGJ7qEAOG5cqVjEQEEEEAAAQQQQACBIQUIz+QsBGZQgPA85JWRwxFAAAEEEEAAAQQQqAgQnmcwONElBAjPlSsdiwgggAACCCCAAAIIDClAeCZnITCDAoTnIa+MHI4AAggggAACCCCAQEWA8DyDwYkuIUB4rlzpWEQAAQQQQAABBBBAYEiB50ZEccopp5A2EEBghgT0mtZrOyL0GmdCAAEEEEAAAQQQQACBIQWOjohH9CH7vvvum6HoQFcQmF8BvZbL4KzXtl7jTAgggAACCCCAAAIIIDACgev0QfvNb37z/KYNeo7ADAnotVyGZ722mRBAAAEEEEAAAQQQQGBEAr9cftAuPvzhD89QhKArCMyfgF7Dfj1HhF7bTAgggAACCCCAAAIIIDBCge3+wP3ud797/hIHPUZgBgT02vXrOCL0mmZCAAEEEEAAAQQQQACBGgR2+oP30572tOLVr351sW3btmJhYYEHBoyBho4BvUb1WtVr1q/fiNBrmQkBBBBAAAEEEEAAAQRqFPi1iPjr9CE8fyDn+WO/vRgHHJo6BvTa1WuYCQEEEEAAAQQQQAABBMYkoD9vs6X86qe+/jnqx8KAZeq4YY4dpB+us99683H9HDvocb307eMRcXtpmOvp5Vjtk4/pp0/VY3utL+/Xb30+1m32cj/zQevsp45R7KvXKn+SakwXR6pBAAEEEEAAAQQQQACB2Rd4fURcM/vdpIcIIIAAAggggAACCCCAAAIIDC5AeB7cjiMRQAABBBBAAAEEEEAAAQTmRIDwPCcnmm4igAACCCCAAAIIIIAAAggMLkB4HtyOIxFAAAEEEEAAAQQQQAABBOZEgPA8JyeabiKAAAIIIIAAAggggAACCAwuQHge3I4jEUAAAQQQQAABBBBAAAEE5kSA8DwnJ5puIoAAAggggAACCCCAAAIIDC5AeB7cjiMRQAABBBBAAAEEEEAAAQTmRIDwPCcnmm4igAACCCCAAAIIIIAAAggMLkB4HtyOIxFAAAEEEEAAAQQQQAABBOZEgPA8JyeabiKAAAIIIIAAAggggAACCAwuQHge3I4jEUAAAQQQQAABBBBAAAEE5kSA8DwnJ5puIoAAAggggAACCCCAAAIIDC6wJSKuGfxwjkQAAQQQQAABBBBAAAEEEEBg9gUUnj8w+92khwgggAACCCCAAAIIIIAAAggMLnBRRPxfgx/OkQgggAACCCCAAAIIIIAAAgjMvsDFEfEHs99NeogAAggggAACCCCAAAIIIIDA4AJvjIj3DX44RyKAAAIIIIAAAggggAACCCAw+wL/OSKumv1u0kMEEEAAAQQQQAABBBBAAAEEBhe4JCJ2DX44RyKAAAIIIIAAAggggAACCCAwmwL/OnXr0oi4Mi3/fHrOUwQQQAABBBBAAAEEEEAAAQTmVuD/i4j/GREvjIjfiYgrImJtRHwsIu6OiGfMrQwdRwABBBBAAAEEEEAAAQQQQKAUeHNEfD8iHo6IeyPi7yLiXyLiCH/zmTGCAAIIIIAAAggggAACCCCAwGMCR0XEQxFRRMQjEXG4fP6jiPjfQUIAAQQQQAABBBBAAAEEEEAAgccE3ppCs0P074ODAAIIIIAAAggggAACCCCAAAI/EVgREd8t7zgrPP8wIp7yk808QwABBBBAAAEEEEAAAQQQQAABCWwrf/ZZX93WLw1jQgABBBBAAAEEEEAAAQQQQACBisC/KsPzoxHxM5VtLCKAAAIIIIAAAggggAACCCDQVeBnI+KVEfGOiNg+44/byj9bNev91LnUOdW5ZUIAAQQQQAABBBBAAAEEEBhCYE1EfDT9HLB+FpjH7BnoHOtcMyGAAAIIIIAAAggggAACCPQpoLuSi0F548aNxdvf/vZiYWGBxwwY6FzqnOZzXN6J7nOYsDsCCCCAAAIIIIAAAgggML8C5zhUXXjhhcUDDzxQMM2mgM6tzrHPd0To3DMhgAACCCCAAAIIIIAAAgj0IPB1hSndnWSaDwGd6zJA69wzIYAAAggggAACCCCAAAIILCPwRoWoF7zgBfORGunlooDOeRmgNQaYEEAAAQQQQAABBBBAAAEEugjcrAC1Z8+exVDFk/kQ0Dkvw7PGABMCCCCAAAIIIIAAAggggEAXge8oQPFzzvMRmHMvdc7L8KwxwIQAAggggAACCCCAAAIIINBFoBWgcqji+fwIlOFZY4AJAQQQQAABBBBAAAEEEECgiwDheX6y8pKeEp67vDLYhAACCCCAAAIIIIAAAggkAcLzkkg5PysIz+mVwFMEEEAAAQQQQAABBBBAoIsA4Xl+svKSnhKeu7wy2IQAAggggAACCCCAAAIIJAHC85JIOT8rCM/plcBTBBBAAAEEEEAAAQQQQKCLAOF5frLykp4Snru8MtiEAAIIIIAAAggggAACCCQBwvOSSDk/KwjP6ZXAUwQQQAABBBBAAAEEEECgiwDheX6y8pKeEp67vDLYhAACCCCAAAIIIIAAAggkga7heffu3cWOHTuWhK5hV6jMFNyKW2+9te8idcyWLVuKw4cPF/20U/vrONe/YcOG4uDBg33X3+sB6qvaN67pwIEDxdq1a1v9W+7c2SCNB54igAACCCCAAAIIIIAAAgi0ERh7eFagc+hVoHTYGyRAO5D2Gp4dnHOoVL11Buhxhmf9J4D6oj65r92CO+G5zSuCVQgggAACCCCAAAIIIIBAG4GO4VkBzOFKAVDLOfTmwKrtmzZtau3v9Vu3bl28A+rjOgU6Ha+Ht19zzTWLxzr8qf7169e31qu8vXv3ttqjeW6nAnVuu+v2+nZBWXW7HrfBZaosH5vLcj+1Tce366/2cTkuX/tW17lOG7rOVsV9/KP/iNi8efPinXTVmdtcLcrtaDMuWIUAAggggAACCCCAAAIIIJAEWkGuGqq8nAOiAl0OYnmbAmHepmWH1OqdZR2n0KZ9qpNDZD5WgVllqH59HVnPNeX25LZou49xea5Lcz+v1u1lbXdfcp25Pu2b69Qxuc1qp/bXpG3a18e47OxSbWdr5/Ifb0tBt+XncvK+1TZq2e3K+/l5KjMNCZ4igAACCCCAAAIIIIAAAghUBUYWnnMo1XMvO/w5TCq4+evFDm/VfR02ta+2abkaBHNQzEFWz3OwzPu5LIfH6rzaVi+7/lxurlPlVvvg/rrOXJbr7bbN+/Qzb9d3wnN1yLOMAAIIIIAAAggggAACCPQvMLLwrODmyaFQyw6NDpPex3Nv1/F+nvd1WTkE69i8nIOsnjuUe+4AqbL06DQ51PdSf67TbVS51T54m9e7TZ5ru7fleju1sdv6bKL9tOy+tzvObeh/2HAEAggggAACCCCAAAIIIDBfAgOHZ4U+PTQ5IDqg5eUcDBVOdfdW8zw5iHpfLWvKy+2Coe8E+3gdk5/nOvS8U5jUMXq4Pu2nycvaVq2/U/99jMuwRXV9blsv21LQbZ0z9z2Xo6+C8zPP8/UCprcIIIAAAggggAACCCAwHoG+wrN/5th3aBUMNTkgOsjl5Wow1DYfp/1dVg6vDob555er4TUv61iXmY9x21ye2+J9tV3luF/V/fO2/Nxtdjmaqw2aXIf2d3neprnb4jK0rnpM68AB/nGZqttluu52xaVAPp7RRi0IIIAAAggggAACCCCAwJQKdA3PCmEKWDkkallfBb7yyisftz6HtG5h0oEyBbclwVPHe7tDqOYOniojL1fb6WW3VaHSk0Oly8/BWftUt6ssT25Xt/77eB8nF9VlH5ehdXqe6/Qxrm+QuX8RWS6/Uzk2mNKxS7MRQAABBBBAAAEEEEAAgbEJdA3PnUJXXeurwbOueij3MQHC89heZ1SEAAIIIIAAAggggAACUy5AeJ7jJE14nvJXL81HAAEEEEAAAQQQQACBsQk0KjzPcY6dSNcJz2N7nVERAggggAACCCCAAAIITLkA4XkisbUZlRKep/zVS/MRQAABBBBAAAEEEEBgbAKE52bk2Im0gvA8ttcZFSGAAAIIIIAAAggggMCUCxCeJxJbm1Ep4XnKX700HwEEEEAAAQQQQAABBMYmQHhuRo6dSCsIz2N7nVERAggggAACCCCAAAIITLkA4XkisbUZlRKep/zVS/MRQAABBBBAAAEEEEBgbAKE52bk2Im0gvA8ttcZFSGAAAIIIIAAAggggMCUCxCeJxJbm1Ep4XnKX700HwEEEEAAAQQQQAABBMYm8B0FqAceeKAZaY5WjE1A57wMzxoDTAgggAACCCCAAAIIIIAAAl0EblaA2rNnz9hCGxU1Q0DnvAzPGgNMCCCAAAIIIIAAAggggAACXQTeqAD1ghe8oBmJjlaMTUDnvAzPGgNMCCCAAAIIIIAAAggggAACywh8XSHq7W9/+9iCGxVNVkDnugzOOvdMCCCAAAIIIIAAAggggAACPQicUwap4sILL+Tnnyeba2utXT/nrHPs8x0ROvdMCCCAAAIIIIAAAggggAACPQq8MgWqYuPGja070QsLCwWP6TfQnWad03yOI0LnnAkBBBBAAAEEEEAAAQQQQKBPgTUR8dFKwKoGLpYjpt1A51jnmgkBBBBAAAEEEEAAAQQQQGAIgZ8t70q+IyK2Vx4LleXq9uWWezne+3iey/Q6z/M2P/c2z72+3fzTEaGHtrXb3+s8b1eGt3nebZ9227yu2/HeZ9C5zqXuNOvcMiGAAAIIIIAAAggggAACCCDQl4ACqx5MCCCAAAIIIIAAAggggAACCCDQQYDw3AGG1QgggAACCCCAAAIIIIAAAghYgPBsCeYIIIAAAggggAACCCCAAAIIdBAgPHeAYTUCCCCAAAIIIIAAAggggAACFiA8W4I5AggggAACCCCAAAIIIIAAAh0ECM8dYFiNAAIIIIAAAggggAACCCCAgAUIz5ZgjgACCCCAAAIIIIAAAggggEAHAcJzBxhWI4AAAggggAACCCCAAAIIIGABwrMlmCOAAAIIIIAAAggggAACCCDQQYDw3AGG1QgggAACCCCAAAIIIIAAAghYgPBsCeYIIIAAAggggAACCCCAAAIIdBAgPHeAYTUCCCCAAAIIIIAAAggggAACFiA8W4I5AggggAACCCCAAAIIIIAAAh0ECM8dYFiNAAIIIIAAAggggAACCCCAgAUIz5ZgjgACCCCAAAIIIIAAAggggEAHAcJzBxhWI4AAAggggAACCCCAAAIIIGABwrMlmCOAAAIIIIAAAggggAACCCDQQYDw3AGG1QgggAACCCCAAAIIIIAAAghY4DMR8SkvMEcAAQQQQAABBBBAAAEEEEAAgaUCOyPibUtXswYBBBBAAAEEEEAAAQQQQAABBCxwRUT8jheYI4AAAggggAACCCCAAAIIIIDAUoH3RcR/WrqaNQgggAACCCCAAAIIIIAAAgggYIFrIuL1XmCOAAIIIIAAAggggAACCCCAAAJLBa6NiNcsXc0aBBBAAAEEEEAAAQQQQAABBBCwwJ9ExG96gTkCCCCAAAIIIIAAAggggAACCCwV+GhE/PrS1axBAAEEEEAAAQQQQAABBBBAAAELfDwizvUCcwQQQAABBBBAAAEEEEAAAQQQWCrwlxGxYelq1iCAAAIIIIAAAggggAACCCCAgAU+HRFneoE5AggggAACCCCAAAIIIIAAAgg8JrA6QXwhIv5DWuYpAggggAACCCCAAAIIIIAAAnMv8OKIeCQi/jAinh4Rt0fEqRFxXkTcHRHvnXshABBAAAEEEEAAAQQQQAABBBCIiP9VBugfRcTDEfG1iHgwIn7AV7gZHwgggAACCCCAAAIIIIAAAgg8JnB+RByKiCIivlfOfxwRnwAIAQQQQAABBBBAAAEEEEAAAQR+InBPGZoVoPX4fkT84k828wwBBBBAAAEEEEAAAQQQQAABBC6IiH8pg7O+vn0dJAgggAACCCCAAAIIIIAAAgggsFTg22V4/mFEnLh0M2sQQAABBBBAAAEEEEAAAQQQQODNEfFoRHwACgQQQAABBBBAAAEEEEAAAQQQaC/wjIj4TkSc0n4zaxFAAAEEEEAAAQQQQAABBBCYb4GnRcRt5de2vxQRT51vDnqPAAIIIIAAAggggAACCCCAwOMFFoPzaaed5t+2TYB+vBFLCCCAAAIIIIAAAggggAACcyzwuOD8rW99qyBAz/FooOsIIIAAAggggAACCCCAAAJLBJYE56IoCgL0EidWIIAAAggggAACCCCAAAIIzKlA2+Cs8KyJAD2no4JuI4AAAggggAACCCCAAAIILAp0Dc5lfiZAL3LxBAEEEEAAAQQQQAABBBBAYN4EegrOBOh5Gxb0FwEEEEAAAQQQQAABBBBAwAJ9BWcCtNmYI4AAAggggAACCCCAAAIIzIvAQMGZAD0vw4N+IoAAAggggAACCCCAAAIIDBWcCdAMIAQQQAABBBBAAAEEEEAAgVkXGElwJkDP+jChfwgggAACCCCAAAIIIIDA/AqMNDgToOd3INFzBBBAAAEEEEAAAQQQQGBWBWoJzgToWR0u9AsBBBBAAAEEEEAAAQQQmD+BWoMzAXr+BhQ9RgABBBBAAAEEEEAAAQRmTWAswZkAPWvDhv4ggAACCCCAAAIIIIAAAvMjMNbgTICen4FFTxFAAAEEEEAAAQQQQACBWRGYSHAmQM/K8KEfCCCAAAIIIIAAAggggMDsC0w0OBOgZ3+A0UMEEEAAAQQQQAABBBBAYNoFGhGcCdDTPoxoPwIITFLguIh4TkS8KCI2R8SlEbG9wQ+1T+1Ue9VutZ8JAQQQQAABBBBoskCjgjMBuslDhbYhgECTBE6NiG0R8cWIOBQRxQw81A/1R/1S/5gQQAABBBBAAIGmCDQyOBOgmzI8aAcCCDRN4OyIeH9E3FMNyscee2xx4oknFmeccUZx/vnnF5dcckmxsLDQ2Ifap3aqvWq32l/tU9lP9Vf9ZkIAAQQQQAABBCYl0OjgTICe1LCgXgQQaKLAb0XE13K4XLVqVXHRRRcVN954Y/HQQw/5mjnVc/VD/VG/1L/c37L/cmBCAAEEEEAAAQTGKTAVwdkfAr/1rW8Vp512mj9HfSkinjpOLOpCAAEEJiXwsoi43SHy1FNPLbZt21bs27fP18eZnquf6q/6bYOI+JuIkAsTAggggAACCCBQt8BUBWd/MCRA1z0sKB8BBJoksD4iPuXAuHr16uLaa6/19XAu5+q/HGxS+siJCQEEEEAAAQQQqENgKoOzPygSoOsYEpSJAAJNE3iLA+LKlSuLXbt2+RrIvCiKq666qpCLjSJCXkwIIIAAAggggMAoBaY6OPtDIwF6lEOCshBAoGkCH3Io3L59e/HII4/42sc8CchFPraKCLkxIYAAAggggAACoxCYieDsj04E6FEMCcpAAIEmCTwzIm5RGFyxYkWxZ88eX++YdxGQk7zKEC0/OTIhgAACCCCAAAKDCsxUcPbHKAL0oMOB4xBAoGkC6yLiAQXAk08+ubjtttt8nWPeg4C85FYGaDnKkwkBBBBAAAEEEOhXYCaDsz9OEaD7HQ7sjwACTRN4VkR8U8Fv48aNxaFDh3x9Y96HgNzkVwZoecqVqbPA8RGxJiL+j4i4KCIWeNRq8KqIeH5E/EznUzKRLfqPpjdFxHYeYzOQ9zT9B9/qiHhtRFzOGBnbGBnH61Hn83URcdJErjzNrXSmg7M/VhGgmzsAaRkCCHQXODoivqDAd9555/maxnwIATmWAVqu8mV6vMDzIuKa0shWzCPGafB/Pv6UTGRJAe4+xsFYz3t1jMlf56Gp0wsj4i8ZIxMdI9UxU9fyJyPiRU0diGNs11wEZ3/EIkCPcWRRFQIIjEzgOn0wWbt2bfHwww/7esZ8CAE5yrP8wCdfpscETq6G5p/7uZ8rzjzzzOJ1r3tdsbCwwKNGgze84Q3FWWed5XGp+ZkTGpjHRMQNDkRr1qwpLr74Ys59jee++tqSt9x9DsrzofPSpOlSt+9JT3pSsXnz5uId73gH42SM46Q6bka9fPnll7fOq86vz3VE/HaTBuGY2zLW4HzgwIGW/8GDB5d84rn11luLLVu2FA8++GBrruW6JgL0mEcZ1SGAwFAC79Ib1gknnFDs37+/ruviXJZ7xx13tFzLDwRynvdJwfkOf0B6xSteUezbt28ux8akO/2qV73KH1QnFZ5bwVl/6u3666+fNMdc1y//9Cf3dF6aMl3oa8Vll11WHD58eK7P06x3Xuf3rW99q69Lmr++AQPxVyJC//ndusEQEV+JCP34gCd95dxtfoVXDjEfa3DWmOoWnj3mdG4UousMz6qLAD3EyOFQBBAYm8BGX/hvuukmXyeZj1BArjaOCHnP67QYnE855ZTiE5/4xAiVKaofgbvvvrt4ylOe4nH58xMYkPqKcCuw3Xnnnf00nX1rEtB5SAG6CV/hfkZE/EDj5Kqrrqqp1xTbRIH3ve99vjYdiYh/N4HrU65S4Vnt0fyJEfGB8mfutY/C8l9ExJPLQK1grf0GnUYenHfv3l3s2LGjdZp1Z3nDhg2LAdh3lb/yla+07jxfeeWVLXd9Y06BWpP3qd551nZ/s05ltrtrPejYIkAPOnw4DgEExiVwu94YrrjiikGvcxzXg4B8yzdgec/j9LjgrDvyTJMT0Nd1y/H48QkNxtbPOHPHeXJjoF3NOh/luND5mfTU+kbUpk2b2jWVdTMu8PKXv9xj8T0THogKww7IaooCs+42a9I8323WsreVu/Q8G3lw1hBRyN26dWvrWxt6rtfTDTfc0Bo9CtZ6OAjruSaFbd1l1t3mduG5GsLz/q0CRvAPAbrnccOOCCAwZoE36IPSSSedNIJLHUUsJyDn8oOp3Odtav2yHyxHSJwAACAASURBVN1xJjgvN1Lq3f7Hf/zHHoeanzOBgajf7tz6Wdt6e0rpgwikn4Ge9G/h/qrGyS233DJINzhmygUU2sr3y7sncI3KVSo8626z7jprcnj2Xegcnr2t3LXnWS3BWUNAQVe/J0ABWaYKzgq7Wq9QrfV6rF+/vjXXMQ7MncKztue7zTpedYzy7rPaQYDuefywIwIIjElgxdFHH/2PenPy/zZO+Xtt45svZ3mX7ivGdJ6bUM271e9jjz22+PznP9/48zTLDdTvNEhfzf3DCQ2O1le2dfebqXkC6VsJk/zq9gm+ZjRPiBaNS+C4445zgJ7kn9XrFJ51+RzFnefagrPPk8KyAq++lv3lL3+5FZ7vuuuu1t1lBd5q+O0lPOv1mR/5q96udxRzAvSE3qWpFgEE2gq8Uxe+devWjeL6Rhk9Csi7fMOR/zxML/cb7B/8wR/0qMRudQn86q/+qsffX0fEcRMagPq7sa3fllxXPyl3cAH9JuXyNavzNKlpldqwatWqwTvCkVMv8MxnPtNj8ZmTGojlzzC3u/OsJulOs7/SrV8i1u/PPNcenDUIFIavueaaxTvOCtFe1vZBwrO/1j2OQUaAnuDop2oEEFgU0P/q/0gfTvbu3TuOax91lAI333yzPwzIX+dhlif9nPP9GmcXXnghY2DCAum32H4/Is6Y4MAjPE94LHSrnvDcTYdt4xSYgvCsy6juPvt9PX+Fe7lL7FiCs86XwrF+1tk/+6wwrWXNvT1/7Xq5O8+6W51/8Zi+VZe/xl3HGCFALzec2I4AAnULvEoXe/2tV6bxC6S/savzMMvT/9A4+6Vf+qXioYceGj80NS4K/Omf/qk/3Gn+xgkPOsLz4plp3hPCc/POyby2qCHhuY7L5diCs8aO/8yUf0Sveqe5urxceFaZOsa/bbuur2xXxz0Buo6hSJkIINCrwEcUaq6++urqtYnlMQjIvfyfap2HWZ3+q/r4Uz/1U8VnPvOZMahSRScB/Qmin/3Zn/WY+1ADBhzhudPJasB6wnMDTgJNaAnMaHgea3CetaFEgG7AOzhNQGAOBY456qij9LcTi3vvvXfWrqtT0R+5y788D8fM4Bh8WfmfA8WuXbum4pzMciPPPfdcB2f9mbRJ/uIdD3XCc4MHHOG5wSdnzpo2g+GZ4DyCMUyA9lspcwQQGJfASxRsTj/99BFcwihiUAH5lwFT52OWpp+PiHvVt9e+9rWD8nDciAQuv/xyj7NHI2LSf3rI45zwPKLzW0cxhOc6VClzEIEZC88E50EGQYdjCNB+O2WOAALjEPgjBZudO3d2uCSxehwC8i/Ds87HLE3/Xf36hV/4heLb3/72OCipo4PARz/6UY8xzS9t0CAjPHc4Z01YTXhuwlmgDRKYofBMcK5hSBOgG/SuTlMQmHGBbyjc6O+9Mk1OQP5leNb5mJVpQX16whOeUPzVX/3V5HCpubj77ruLZz3rWR5j/3fDBhjhucFjlPDc4JMzZ02bkfBMcK5x3BKgG/buTnMQmFGBHyrgHDlypMbL2WBF59/eqDbmvyNY/W2Qg9XQnKPkX4ZnnY9ZmDaW/SmuuOKKWqF37NhR+LeG1lXRtI+3l770pR5f+rujT23YAJv58Kzx4z8LU72u5T/p4j/5Ur3eaVzn4zTmNem35qpcbatrSuFZ/xk2qWkq/85zvjbl54Ocq+pvSO5URv7NyJ320fp+2uPx++CDD9Y+3rq1eQbC83+IiAf1+j7ttNMKBb1RTDqXfr/V3H9yqp+ydY7956ny817K0PvvsPX3Uo/26WXcEqAndZmmXgTmQ2ClLnhPfepTe71ujW0/Xbz15w7ym4Aumg7Q/V7cx9bwISrSeSjfgHRe2k3HRcTvtNvQsHXPjIivqS+vfOUrhxDp7dBe3kx7K6nzXtM83t75znd6XGm+Po2V303PJ/l0psNzNeB2CjfVcKRxrYcmh2odW91PY9PBvPMIHnxLCs86T+2mcVyXpjI8Z/Vhr1PV857Lzs87ja+8j5732p7q+K17vFXbmZd7CM/nRITGYxMn3XHer/dF/RjTKIOzPxfJSuen+tkpG/byvJ/3u+rfdM7Xql7q6nefXsftgAF6HNeyJo5N2oQAAn0IPE8X8uc+97n9Xr9q318fAPIdGVWoC/r69euLffv2tbap7d7Hbxh5nY7xBwl9uKxuq70TfVag86A2RoTOS550QVfQeSQiDucNDX1+vfqxZs2a4h/+4R/6VOi8ez7H+e9I6s30yiuvXBwTWvbkD5yla2s86M1d/8Ou8jTpzd8fPry/xk2etK//V97rVU8uV+t9fHW9ytPxemhbbr/Lq2P+Z3/2Z4ttjIi3lOPlNyLif0WEfst+EwJ0beG52+vfH/J8rjxuqufaZejcVs9v/saD9nNZHk86p1rvsrWsY/Kyz3t1XOq4fH3L4y+PWR2v8rR/HVMKz9U7z+O8Lo09PHc613LW+W33nqLzsGnTptY48HnWXA+PDT33Oauua3f+VKb28/XDx1fb5/Pv9ml7p3r6aY/Kq47XOsdbOwOv6xKenx8RN5bvkZ9r4PuigvOXfb7XrVvX+hyTX9P5vOm5PuvofUJjbe/evYvnX2X4/cNjwGPCTjo/enj7Nddc0zpGx3pfXedUhx66zuhzldrz1a9+dfG9NF9/VKeO9zrV5Wuo2pun3Be3wX33vt2us9rH4z33t9241b4u29dd17lx48bFbRHxpS7fuhrntayBw5MmIYBAPwLn6qJz9tln5+teI577ouw3iWqj8oXX+/pNQW8avoj6wpq3aXsTJ52H8k1A50WTL+jfL0Pz9yLiTeW2ps7+i9/I/vzP/3xkzH4z9Buv5j6PmvsNXeNCY8b7VceCx5PWex8Fb40XjSM9/Dw3Po83rdd4cv15W6f6VJdcNHdffHyuZ5TP77vvvmL16tUeU3siwqH5UHmO7mjIIKo1PKuv1de/z4HX6xzqQ6Tm+XzqfOic+XqSz3seK/l4l+3zq7nHmsrTsl8jHhNaX603l5nb4DZ5zHvZ9Wl5lFMKz77zPInr0tjDc6dzrXPRbkzJXOfAY8XLHmPa5ueaez+d53zNyudO+/k8ez+XofJ8ztUmX9vyWOlWT6/t0X4qM09adt15fd3P24Rnh+Z/iYgfla+rZzTkuuZmLP6Ms/5DWYFO147q6z2fNz33+ZSpln2tqF5fdI61rd358L55DOXrXB53uT35udqq49UGTarHY1frXHanc1/d3/3KdbiPudxO/VV5fg2oDPfHfdX2/HyZO9CTuJZ5XDBHAIEpFdiiC9QFF1zQ6bo38fV+Y1A7fdFVo/KFNz/3Nl9Qqxf36r4T72BqgM6D+hkRl5R3BB2avf5gw8eZvjLXauvv/d7vpZ4N/9Rvhn4DzyXqzVIPTXm//Dxv05jSw2+y+l95PVS2Hi4r15HHTbVc71dd72XVVR2Hrt/H1jE///zzPW7+PiLujAiHZq1/uAzTTRhStYbn/OEun8dsrg+IutOh7dV9dO78oa7TedN676NyfUz1Z0TzmPB+vq5Vx4ja4etYu/Kr/arrq9spPO+c4HVpouE5j5V258l3EPO1SMdoWecuP6+OgbyttWP6Jx+f96sGGpeptuWxpzHp+vPx+bmPbbeftmlcaSzmSct1jbdcT/V5Cs8vjYj/ERE5NOubWe9vwgUttWExOOtnnD//+c+3rjO9hOf8+q6OOZ2r/D7l8eD3X2/rdm7z9UXOWvY4zs+rdVe35ete9Xy5fpWhyctqfy5H2zxutU+1ztzf/JrQ+ly/y9B1N4/9NgH6WRO8lqXhwVMEEJhGgdaH1m3btlWveY1czhfUfOHN69Xw/EHYF1NdkDXl45rWSZ2H8s1PPxelr9R6WXP/r3pe18jnegOuY8ofEPIHi/xm6jdnnXfvr+eevK/GgT78ffnLX2595Vv76I3YD+/veR437crVfu3Wu77qOMwfBlzHKOfpT59pjOhDZXWsVMdXdfvYlxXSRj1V3fN51Lbs4hCb91F7qmXonPo4bdOk8+l1nmuM6iuQDuXt+ubxquOr9WrZ4bnaBi3n14D2rSvMpPA88evSqlWr2jHWtq7dua6ei3ze/Hp3g/Kyn/uce5x4ru158n4aG55chq81PtZz7ev2OUB4m+eux2W5Hm/3XNtVT7vxW+d4c1/bzVN41n/+/dhtLeffrSwveU1Oart/OVgeK/m5+urzpvORn1e3aVnn2eex6uTzqX38XOV58nmv1p+X83MdW3XztVLb8nXIdXjucdpL/drHQTg/V1m5v26/11fbpvbcf//9rbJyvZUArV/aVn0PnJrPWNU+s7zk882SMdsgo3+ICH+7dBpzI22OiMbeedbFUo885TfyfHHPz7W/lvOHznxx18U0L+fyJ/18yu88/4kuTieddFLxjW98o3bK/Oaa30zzh4X8XA3ysj9U6LgbbrihNc40ZrTc7i6Ljs1jzOXkN+Zcvtd7P9WX26t9tU711TF94hOfyG8cby/vMOsr2vnOs57ra9xNmMZ251nnQa9//1yfz1Wna4vPlT/U5fOVj+l0PjUGOo0pleUxonbk8rTNbdX6PP7atUnbxxCe5+rOc6dznc9L9Tzla5G25WU/z+c819HuuY/xNi9Xx4q3a672abw6PGu53eSyurWn0/itc7y1a6vXpfCsO883Ve48/yAirm7CBS21QX/ZQD9r2/rt2t3uPOsa4uuMz6H8NVWXfb3RONAxmufJ231utawpL1evKXk5P6/WnetRvbqeVseYx0d1DHarv1v/3R/V7XGr53l9bpfrcbsqwVnngzvPaZDydKwCHyc8j9W7lsoa+zPPuvg6APuiqAulg2++uPsCru2adHHNb0J64/JFVNv0aOLU4888X1rLSBiu0Mv8v3of//jHa6HVOc53QHQ+fR4197mvvmlqWx4L/h9zNVI/66wxprJ0nPbtFEDyeNOx2lcPTXmsdqpPdbgdOqbTm36rwCH++eY3v1mccsopDs8fqZxWheUcovVLw5ow1Rqe273+fc3wdUHnw2ND51PPPS503nzudH491lSG1muex4BOXx4Heu562o1jX9M8dl2+jtNDU25vdT9tV/net3XACP9Jd579C8Pa/Zxg3delsX9tW54+F/lcy7rdmBJ5Pqa6nLepXI8pn1vXlU+d6vL48Lj0fipPD03epv31cNnd6um1PdpPZeZJy647r6/7eQrP+osOmn65TYhu2s88Lwbo6s88d7rO5HMo0+qyzqv9Nfdz7ZvHk68VHg/5OqXnek/V/prycn7u8jwGVLfHpI6rLnt/rdektrl+ldHLdXa5/rrs3J9cVw7tbYJz/lONk7iWlUOX2ZwKEJ5n4MQ39rdt60KoC6MutA5m+YLtC7TX5X29TmXoIqw3CD1Uji/i2ta0qYfftq2vGTXtt21v8Pn53d/93VpJdS5dVz7HenP2m6k/LGhfTV72cV6vbXreqZxqR/KHiW7ldqpPdeWxp/bmDzzV+gZdfsUrXmGjuyJCgaPd5BCt8TTzv2270+tf58DjQj/zrvPj8eFtuv54m86trzs+zvvrfOm51+dxpfX5XOdrlT9I+nzn8vN40fZ8XC5P27Sc2+LyRjFP4Vn/yZEnf/Acx3Vp7OE5nwudV/tq3mlM6Tz4WuTz4mWPKS9rX4+XfD7blaH9NKb0H34+vnqt8Xq1L4+dTvX02h6Vl9vnftljFGOs1zLahGePR/3iMN2J1o+o3OKVDZovBujjjz++0G/b1vjyOaheZ6rnsLqs4/I5yedYY8VjwWMkb/d5q76n5WWPfV/H8rWnes3SuXM/PJ5dv7a5Dd7m+vNxy/U/99d1uQ6V57LdXtd54403tu74l9t7+W3b47iWNWhY0pQJCBCeJ4A+6iob+3eee30zXW6/6pvOcvtPcvsU/p1n/TKUv9Ub06//+q9Pko66i6J473vfu/ghIiJ+rYeLRROCs5pZ653nHCQmMVD0Qa7bV7eHbZM+2Hb6xsSwZev4LuHZQ0whuu6/Pz/28NzJbpreUzr1oZ/11fFb93jr1rYu4dljscl/53kxQPtnoLv1dRTbHCJzYB1FudNQxjJ3nD1eqvNxXMuqdbI8XwKE5xk53z9U+Dly5Mg0XA/7buO0fNCRf/m/ozof0zL9P2rzs5/97OLrX/963+eGA0Yn8MlPftLjR/PqHcKmj6eZDs86y3UFjmqwGd2I+klJPYTncYwvwvNPTsnYn3n86uuwdf5H0HId6yE8j2MsDlPHWAP0vIbnAYPzMOeVYxHoVYDw3KtUw/f7hgLQ/v37l3vfYnuNAvIvw7POxzRMv122t/jYxz5WowxFLyfwT//0T0X6yv/HpmHwVNpYW3hezo7tywsQnpc3Yo/xCMxAeNalb6wBejxnpjm1EJwr764sNk2A8Ny0MzJge/5IIUh/2oZpcgLpTwvpfDR9+o8R0frGwrT8mbPJndn6a37Na17j/3i5JyJObPrgadM+wnP9w2TgGgjPA9Nx4IgFZiQ86xJIgB7x2FBxBOc2766sapoA4blpZ2TA9rxE4fn000+v4VJGkb0KyL+8k6vz0eTpyRHxN2rreeed12v32K8mgd///d/3uNG8KX96qt/xS3iuaXyMoljC8ygUKWMUAjMUnnWNJECPYlCUZRCc+33bZf8JCRCeJwQ/6mqPOeqoo/QbBot77713hJcyiupVQO7yL8/DMaM+wSMu77+pratWrSruuuuuXrvIfjUIfPrTny5WrFjh8NyUX/41yHAjPNcwPkZVJOF5VJKUM6zAjIVnXSsJ0MMOCu44D/KeyzGTEyA8T85+5DXr78EWV1999QguYxTRr4Dc5R8R1b/LO/ITPWSB/6lsZ/HhD3+4326y/wgFvvOd7+Q/wXHjkOd10ocTnkc4NkZdFOF51KKUN6jADIZnXXunOkDrl8npT03ps4H/VNSg53eQ47jjPOm3b+rvU4Dw3CdYk3d/lS58Z5111iDXLo4ZUkDuZSjVeWjq9MKI+IHa+ba3vW3IHnP4sAIXXHCBx8zfR8S/b+qg6bFdhOdhB0SNxxOea8Sl6L4EZjQ86zI5lQG6+tv+9beXx/mnAQnOPb7DsluTBAjPTTobQ7blhIj4kYLRzTff3NebGTsPJ7B3716HIPnrPDRx+t8iYp/Gx9lnnz1chzl6aIH3v//9HjOab27igOmzTYTnoUdFfQUQnuuzpeT+BGY4POuSOdEA7TvIw/xNaJWxefPm4uDBg/2d2AH2Jjj3+S7L7k0RIDw35UyMqB3vVDhat27dAJcxDhlUQN5yjwj5N3X6gNr49Kc/vbjjjjsG7SrHjUDgc5/7XPHTP/3THjPvauqA6bNdhOcRjI26iiA81yVLuf0KzHh41mVzrAHafwda7+/5jrECdPm55HHz5YL1uO48E5z7fIdl9yYJEJ6bdDZG0JYVRx999D/qgqkLIFP9AnKWd+m+YgTnsI4iLvKbKOOi/jHRrYbvfve7rd+KX56Pv6jjZE+ozDepTxdffHG37rNtQgI6L+WY03ma1KRv5RTHHnvshBSotgkCxx13nMfiz0xqII6h3rEEaAVh/ayy7hYPO+lOs37eWa/R5QL2sHURnMcwAqmiTgHCc526Eyr7Dbr4nXTSScNe3zi+BwE5lx9K5d7E6biI+Du1cevWrT30iF3qFHjZy17m8aL/5FrTxAEzYJvWaYytWbOmTj7KHlBA56W8Tuk8TXL6qtpxyy23DNgTDptmgXQ39O5JDsIx1T2WAN3pzvOg48Qhuq4ATXAe0+ijmjoFCM916k6w7Nv1AeWKK64Y9PrJcT0IyLf8QCrvpk4Xqo38DfAeTmjNu6TgrHHzsqYOmCHadZ/G2vXXX1+zJMX3I6DzUV6ndH4mPenHFIpNmzb10wX2nRGBl7/85R6L75n0QBxT/WMJ0B4e+Wee039U2Lw1Xy4UO4zX8S01gvOYRh3V1C1AeK5beELlbyw/LBU33XSTr6vMRyggVxtHhLybOt2rdn7kIx8ZYe8pqh+Bv/3bvy3mIDhr/Le+ur1y5crizjvv7IeIfWsS0HnQ+SivVZP8yravj8/wb/y/6qqrauo1xTZR4H3ve5/H4ZGI+HceEHMwH2uA7vfc606zfkGYv/qt+fr16xeX+y2v0/4E5zkY6fPTRcLzDJ/r1v/wn3DCCfyCqE5X8wHX79+/v5Br+YG06b/wqTjllFMG7CmHDSNw//33F295y1uKJz7xiT9O/9Eyi3ec82X0BvVVgY070MOMnuGPlX8KzjovTZla34bROLnssssK3eliml0Bnd+3vvWtfr/U/PVNGYhjbEejA7TvWPt9arm70/2OVoLzGEcaVY1DgPA8DuUJ1nGdLob6hRIPP/xwv9c79m8jIEd5lm8y8m361Grr85///OI3f/M3C/3WXR71GVxyySXFueee2/oPiyc+8YkeJ5rrYntO0wfLCNp3TES0ArReI/pZW/2yKsZcfWOuaivv9DPOGns6HzovTZou9Qf1Jz3pSa07X+94xzsYJzN0fb788stb51Xn1+c6In67SYNwzG1pdIBu83FnJKsIzmMeZVQ3DgHC8ziUJ1jH0RHxBb1xnXfeeSO5EM57IXIsPwjIVb5Nn86MiLvShxe3n/ljf16sbod5Cc3V14G+Itz6GWjGXuvP2NU9ztqVL/8mfFW7Oja8/MKI+EvGx8TGR7sxU9e6T0bEi3zi53g+VwGa4DzHI322u054nu3z2+rdsyLim/qAsnHjxuLQoUPznn8H6r/c5Fd+0JOnXKdl+umI+IWI2BwRCzxqNfjPEXFeRPxiRDxlWgZIje3Ub3dWgNPfgZ7kQ+Ne9Xea99K2Tsf2ur6XOkaxj7wn/Vu1+xlSqyPitRFxeQ1jxOemk2venp97/7wuP+91u/dbbp7Lzs99XF6Xn/e63ftp3u74frbnfbs91/l8XUSc1M9gmIN95yJAE5znYCTPbxcJz3Ny7vVB6gEFv5NPPrm47bbbBgqQ83qQvORWBmc5TtMH0zkZ4nQTAQQQQACBqRCY6QBNcJ6KMUgjBxcgPA9uN3VHPjMiblEAXLFiRbFnz555zcJ99VtO8iqDs/zkyIQAAggggAACCAwqMJMBmuA86HDguCkSIDxP0ckaVVM/VAbBYvv27cUjjzzSV5icl53lIh9bRYTcmBBAAAEEEEAAgVEIzFSAJjiPYkhQxhQIEJ6n4CTV0cS3OBTqT5nw9zYf/18Cu3btyn/iRQFaXkwIIIAAAggggMAoBWYiQBOcRzkkKKvhAoTnhp+gOpu3PiI+5RC9evXq4tprr318ipyzJfVfDjYpfeTEhAACCCCAAAII1CEw1QGa4FzHkKDMBgsQnht8csbVtN+IiNsdGE899dRi27Ztxb59++YiOquf6q/6bYPSQy5MCCCAAAIIIIBA3QJTGaAJznUPC8pvoADhuYEnZVJN+q2I+FoKkMWqVauKiy66qLjxxhuLhx56aCbCtPqh/qhf6l/ub9l/OTAhgAACCCCAAALjFJiqAE1wHufQoK4GCRCeG3QymtKUsyPi/RFxTyVYFscee2xx4oknFmeccUZx/vnnF5dcckmxsLDQ2Ifap3aqvWq32l/tU9lP9Vf9ZkIAAQQQQAABBCYlMBUBmuA8qeFBvQ0QIDw34CQ0uQmnRsS2iPhiRBxqEzzbhdGmr1M/1B/1S/1jQgABBBBAAAEEmiLQ6ABNcG7KMKEdExIgPE8IflqrPS4inhMRL4qIzRFxaURsb/BD7VM71V61W+1nQgABBBBAAAEEmizQyABNcG7ykKFtYxIgPI8JmmoQQAABBBBAAAEEEOhVoFEBmuDc62ljvxkXIDzP+AmmewgggAACCCCAAALTKdCIAE1wns7BQ6trESA818JKoQgggAACCCCAAAIIDC8w0QBNcB7+BFLCTAkQnmfqdNIZBBBAAAEEEEAAgVkTmEiAJjjP2jCiPyMQIDyPAJEiEEAAAQQQQAABBBCoU2CsAZrgXOeppOwpFiA8T/HJo+kIIIAAAggggAAC8yMwlgBNcJ6fAUVP+xYgPPdNxgEIIIAAAggggAACCExGoNYATXCezEml1qkRIDxPzamioQgggAACCCCAAAIIRNQSoAnODK0BBP5NRJwfEW+LiO1z8DgQEX8yB/3UuXxjRJw+wJjgEAQQQAABBBBAAAEEGiUw0gBNcG7UuZ2GxvzbiPhvEVHwmHmD/zciXjMNg5I2IoAAAggggAACCCDQSWAkAZrg3ImX9R0E1kfEtx2aX/ziFxeXXXZZsbCwwGNGDLZv315ceOGFxbOf/ez8nyMf6jAeWI0AAggggAACCCCAwFQIDBWgCc5TcY6b1MhfjIgfKDi/9KUvLe66666CabYFPvjBDxYrVqxwiP5AkwYjbUEAAQQQQAABBBBAoF+BgQI0wblfZvaPiM8qOL/2ta+d7cRI7x4n8NnPftbhWfOX8UpAAAEEEEAAAQQQQGCaBfoK0ATnaT7VE2v7uQrOq1atKh599NHHhSsWZl9g165dDtCfn9gIpGIEEEAAAQQQQAABBEYk0FOAJjiPSHv+itHPvBY7d+6c/aRID9sKHH/88Q7Qz56/4U+PEUAAAQQQQAABBGZNoGuAJjjP2ukea3/+RuF53759bYMVK2df4JxzznF4fslYRx6VIYAAAggggAACCCBQk0DbAE1wrkl7foq9R+H5nnvumf2USA/bCuhn3TUGIuK18zPs6SkCCCCAAAIIIIDArAssCdCnnXaaP/h+KSK0nQmBfgQIz20j5fysJDz383JhXwQQQAABBBBAAIFpEnhcgC7vGBGcp+kMNquthOf5yclte0p4btYLktYggAACCCCAAAIIjFZgMUBHBMF5tLbzVhrhuW2knJ+VhOd5e8nTXwQQQAABBBBAYP4EFKD1lW2+qj1/536UPSY8z09ObttTwvMoX06UhQACCCCAAAIIINBUAYVnJgSGESA8t42UvyGTNAAAIABJREFU87OS8DzMy4djEUAAAQQQQAABBKZFgPA8LWeque0kPM9PTm7bU8Jzc1+ctAwBBBBAAAEEEEBgdAKE59FZzmtJhOe2kXJ+VhKe5/WlT78RQAABBBBAAIH5EiA8z9f5rqO3fYXnHTt2FLt37x5psjxw4ECxdu1ajeXWY8uWLcXhw4f7riO3LT9frqCDBw8WGzZsGLr+5erRdvV18+bNhepsykR4ruNlRZkIIIAAAggggAACTRMgPDftjExfeyYanh2cb7311sUsqeA7aIB2Ib2GZwfn/B8Cej5s/W5HdU54nr4XCC1GAAEEEEAAAQQQqF/gVyLiAxHxxLKq1RHxnnJZ67TNd7u0r6bq+leU6zvNCM+dZFjfq0DP4Vmh0mNWz3NA1Z1iBU6FYD/ftGlTa/+9e/e2tml/H6/nmrS/7vrmO7EKmOvXr2/dpdV2lbt169bWsXlfleE6cnuq7VQ9uW5t96Tn1aDs9jvQa+52531VpsvKx/h5rlPPHdRVlvvhfV1+rlMGuiOf65SNLHRcdeq2rbpvXubOc68vFfZDAAEEEEAAAQQQqEvgyRFxXUQoNGtSEHYYvjwi9NCk4PyVcj9t93odr4CteadJH+qZEBhGoOfwrMCVA2N+7hCo8Ofn2q7Jyw6B2kehUGHPgdLLOdTpuYOrQ6rKdLmau0ztq+W8n59r7v1Up+rK7fR+1bq13G7/XL+PdR9zua4z91fl5a9tqyyXl/fLz3O7dDzheZjhzrEIIIAAAggggAACTRVQEFY41h1l3XVWkFYY/otyvdrtu83aL4fnXvpEeO5FiX26CdQWnqvB0ssKzAqQCoKetM13X3OQVoj0XVqHWYfPHDy1Tcuuw88dar0+7+dtqqPTpG0Owdont8d1aH0uy89dZ+5vDs/+jwPX7+O0nOtR+dnHTpprv27bOvUrr+fOc7eXB9sQQAABBBBAAAEExiWgQKwAnb+y7fC8GBbKD8P5rrS36fhuE+G5mw7behGoLTy3C4UKbTlM5hDn5zk46nkOrzl85vCqY/OynzuQ5sCp59rubQ65rj/Pta2X+l2W2pufq6zc39x+h+dq21Rntd9uk47nznMvw5p9EEAAAQQQQAABBKZNwF+9vjR9ZVvr8te5O/Wpl/0Iz530WN+rwEjCs4Ngu/DYLUwqKFbDaw6bKi/fec7LDsgOlnnZz6t1e1/Pq+HY63W86tIjh+dO9Xfrf+5PNTxX78C7/mq9Xk947nVYsx8CCCCAAAIIIIDANArozrN/ptnt1zo9NOmutLb7LrXvQDt4a95pIjx3kmF9rwJDhWcHS4U93UHVvBpYq8vVMOlfDuaAqEDrwJzL1XaFWj38PAdvB+bqthyQHXJ9XHVZx+b6FVarPyOd6++l/9X++mvnbqfLy3V1Cs86ZtQTX9vu9aXCfggggAACCCCAAAJ1CygU59+6rfr8c86twFG5K62fh/Z6vrZd99mh/L7Cs4KlxqfmDp5a1leJFST7Dc8Kgg6NHvcOztqm8hQ29dB2h1Vty2G5upzb6W0u32FV6zXlfmifXL+2O8BX68/Hdet/Ds8+xnX4PxbcNrXbdea+tlbW9A/hmYsAAggggAACCCCAQFMEdIfZd5NH3SYFCiYEhhHoKzzXlN86FjvOO7AdGzHjGwjPw7x8OBYBBBBAAAEEEEBgFAK+u1y96zyKsl3GpyPiCV5gjsAAAoTnGQ/Hy3WP8DzAq4ZDEEAAAQQQQAABBKZO4PvlV8CnruE0uDECjQ7PywU/tg8vQHhuzGuRhiCAAAIIIIAAAgjUKPCdiPjXNZZP0bMvQHgePn9OdQmE59l/kdNDBBBAAAEEEEAAgYhvRsTTgUBgCAHC81RH3+EbT3ge4tXDoQgggAACCCCAAAJTI/D1iHjW1LSWhjZRgPA8fP6c6hIIz018WdImBBBAAAEEEEAAgVEL3BERp4y6UMqbKwHC81RH3+EbT3ieq9c7nUUAAQQQQAABBOZW4PaIeF7Z+2PmVoGODyNAeB4+f051CYTnYV4+HIsAAggggAACCCDQVIHnRMTBiHhrRBwXEZ+LiBdExGsi4lBEfLapDaddjRUgPE919B2+8YTnxr42aRgCCCCAAAIIIIDAkAJfjQj9iaofRMS3IuLvIuKfI+J7EfHCIcvm8PkTIDwPnz+nugTC8/y96OkxAggggAACCCAwLwIvjojvRkQREYcj4sfl8y/OCwD9HKnA32j87Nu3b6oDII0fXOCcc87RtUSPl4x0ZFEYAggggAACCCCAAAINELi5/LDrD736yjYffBtwYqawCR/SWNq5c+fg6Ysjp1rg+OOP93Xk2VM4fmkyAggggAACCCCAAAJdBU4rv7rtD7366i0TAoMInKvwvGrVquLRRx+d6hBI4/sX2LVrl68hnx9k8HAMAggggAACCCCAAALTILAn/v/27j928vyuD/sr4lyM5B8SyT8nCpXtqtBK21OsKD+KJXpysmfMRXGw0lsLJAdLxymH07pUK2yX6202laoisTVx1XiPAq20TtoeJVbAQNw7xS6bhKYptpSgXVNTydK1sZo1TQCvbcA31WuY1/q9n5vv7Mx858f785nHR5qb+fx6/3i83zM3z/3MzDfia4vvOj85hgZrY7cC+UNzs/zuq+V0BD71qU9VcM77v9Tt7NQwAgQIECBAgAABAucUeMPi+87/8pzlOJ3Amxc/QDf73u/93tlnP/vZ00mQJ9rT5557bvaqV72qwvNHPAUIECBAgAABAgQIpMCfiYgfiohnJ3j7pxHxDyfYrxyr9y7Gziw+jMDFiPgX9V36t73tbbMf+ZEfmV25csVtIgbPPvvs7Mknn5y96U1vqtCc9/mddwsBAgQIECBAgMCJC7w7Iv5ZhQH381/Tbd80j+Xxry/+jvWJT+eDdP9fj4if8lwZ7XNlk+e059VBnlIqIUCAAAECBAj0L/CTFQDe+MY3zq+25FUXV9HGcRXRFbKjP8H+WET8BxHxgXN+quHKA87fZP+yY9tt7eP6lEm7rX1c++v+dkT8T4u2Ljuu3dY+rvPbbe3j2t/e73t/W9eyxz7RcfSnlwYQIECAAAECBPoR+JsZnB966KHZ9evXT/QbjdPptu9m9vPEmmhL/uzi+97/ZKL90y0CBAgQIECAAAECSwXeWVecP/nJT04nQZ54T/wq8NK5buNuBG4uXjO+FBFv302RSiFAgAABAgQIECDQv8Cv5Bvha9eunXjcnF73/T3a/p98I2zhWyPid+of3CLi/xhhHzSZAAECBAgQIECAwMYC+aebZq973etmL7/88vTSox7NXv/619cPIr1p49nhBAKvFMi/b/1yE55dfX6lkS0ECBAgQIAAAQITFPgL+Sb47W9/u5g5UYHHH3+8wvNfnOD81aXDCjwaEb+9CM53mxD9a4dthtoIECBAgAABAgQIHF4g/zTV7N3vfvdEo6Nu/cAP/ECF5x84/PRS48QE8rvOv78Izfn3rT+3+DvXX4mI75lYX3WHAAECBAgQIECAwH0CwvPE87XwfN98t7K9wL+/+K7zcxHxrRHx9yLiYkTkp1cyRP+d7Yt2JgECBAgQIECAAIH+BYRn4bn/WaqFvQh8W9OQCs/NJg8JECBAgAABAgQITFdAeBaepzu79WyfAr8cEY/tswJlEyBAgAABAgQIEOhJQHgWnnuaj9oyHgHheTxjpaUECBAgQIAAAQI7EBCehecdTCNFnKDAL0XE206w37pMgAABAgQIECBwogLCs/B8olNft88pIDyfE9DpBAgQIECAAAEC4xIQnoXncc1Yre1F4Bcj4rt7aYx2ECBAgAABAgQIENi3wH3h+c6dO7NLly7Nbt++vdNImeU98sgj9feGZ0899dTs7t27G9WRx+d5N2/enG3azjwn/5513W7cuLFR3ZscnH1Nw2zjoZarV6/O+5bGw7Hzp6r2/RQ62fIzPL/9ZHuv4wQIECBAgAABAicnsPfwXME5A2wtGfa2CdB1/ibhOettQ2WF8H0F6EOH5+xHWWZfH3vssfuCu/B8cs/pQ3X448LzoajVQ4AAAQIECBAg0IPAvfBcoTKvzmbY/MxnPnPvSm+G1jawZkC8ePHi/JZh7Vd/9VfnV1szxNXV3QrLywJdnZ/3uT/Pu3z58vzcCn/VnieeeGK+/cUXX5wfV/fVziyjjh3WXduHQTnPaa8OZxvq3AqidW71Y9j/PH/Y3zwm259lVT+yrrrqXtvSM8tNw9xXddY/Dmxyn/8QUf2r+qvNWY7w3MPTbJJtyPD8PZPsmU4RIECAAAECBAgQWCJwLzxn0GoD4oPCY4a+CmkVECvEtVeWK9Dl8XnccMkyMmy25+b5VX8+zqXW8/i2nbkvj6njcn/VlfVlQF1Wb7Wj2p7nVR1t/bk9l7bOOqdtcwXg3FfBvPpeZWS5dVzbzmpL3ee+CvPtfZVTx1V7a3utV7vyOOF5yay3aRcCvyA874JRGQQIECBAgAABAmMR2Do8t6E0A2O7nmGuQmIFvQx0FQQr3Oa+PLa9Ilvh86WXXpqXUUGwgmEe3wbZYUBtj6uy8pizlmFbqz1Vf67n0ta5qr9tnVVW1b9q31ntW7X9rL6XWZ4rPI/lqTi6dv58RDw+ulZrMAECBAgQIECAAIEtBbYOz3V1NQNaGwpzfRhIhwGwDZXDY6usYXhtQ3EbZCtAVjCv+wyQWVYb6oftyPU8rg36Z9Xf1lnH5LZc2j60+3J7tafu6x8O2nOWtWudba1JHl/rwvOWzwanbSLwyYi4uskJjiVAgAABAgQIECAwZoG1w3MbRNuAmKFtuN4GwwxybZjL49sgmse2V55rfZPwnEE+2zBcloXJqj8Dc7ajbWvuO6v+Vf1vy2gt2u3Dtj1oX4Xt9j7PGS75UfDyzf6kZXucK89jfnp23fa/GxF/vusWahwBAgQIECBAgACBHQo8MDzXd4kzoNVV0zYgZpgbrrfBsA2dFfyyrArMeWwGxAp8WV/eKvjW9na9Dd9ZZp1Tbcl21nl5X+3O/VVO9SvbV8e3+9rHed6q/mcddfW6tRiG2WG/65wsf9sly6xysh3lWuUJzzt8tiiqFRCeWw2PCRAgQIAAAQIEJi9wX3iuwFhhs4Jlhttr167Nfwgrt7UBMUPacL0Nk7U/y6yrqG3Ay2PzynHecn8FwWpL7s+lXa/H1c5ar/IzULZLllH78r6Ccx3T7q/6c9+6/c/z67wKzNXHtoxqb5bdnlPt2PY++5P9asuvsoTnyT+Hj9VB4flY8uolQIAAAQIECBA4isB94bkC1yHvdxkiD9nusdQlPB/leXUKlQrPpzDK+kiAAAECBAgQIHBPQHgeSwresp3C87257sFuBYTn3XoqjQABAgQIECBAoHOBo4fnLTOh09YUEJ47fwaOt3nC83jHTssJECBAgAABAgS2EBCe1wyhYz1MeN7iWeGUdQSE53WUHEOAAAECBAgQIDAZAeF5rKl4zXYLz5N5rvbWEeG5txHRHgIECBAgQIAAgb0KCM9rhtCxHiY87/X5c8qFC8+nPPr6ToAAAQIECBA4QQHheaypeM12C88n+Kw+TJeF58M4q4UAAQIECBAgQKATAeF5zRA61sOE506eadNrhvA8vTHVIwIECBAgQIAAgRUCwvNYU/Ga7RaeV8x+u84jIDyfR8+5BAgQIECAAAECoxMQntcMoWM9THge3XNyLA0WnscyUtpJgAABAgQIECCwE4G/EBGzt7/97WPNhtr9AIHHH398lmMcEX9xJzNGIQT+UEB4NhMIECBAgAABAgROSuANGaxe97rXzV5++eUHxDC7xyjw+te/vsLzm05qZuvsvgWE530LK58AAQIECBAgQKA7gV/JAH3t2rUxZkNtXiHwoQ99qILzP+hu1mnQ2AWE57GPoPYTIECAAAECBAhsLPDOxcd6Z5/85CdXRDG7xiTwqU99qoJz3v+ljWeFEwisFhCeV/vYS4AAAQIECBAgMFGBv5kB+qGHHppdv359TBlRW5cIPPfcc7NXvepVFZ4/MtE5q1vHFRCej+uvdgIECBAgQIAAgSMK/GRdgX7jG984e/LJJ2fPPvvs7MqVK24jMMixyjF705veVKE57//bI86nbat+NCLeFxHPunVtcDsi/pYx6nqMfjQivj8ivm3bJ6PzCBAgQIAAAQIEzhbIP131zypEu5//SnUbRsfy+Ncj4i+fPcxd7snA/HlzbrRzbizPjVNt589GxIUun/kaRYAAAQIECBAYucCfiYgfWuOq0pUlx6y7bdmVxfbcelz3eXz7uM5fd1sd//cjIm+1vu757XHt4ypn2f2y49bdtqy8B217b0Tk2I1peSgiPlah+cKFC7Onn37apx1G8GkHn0rp+1M5H/zgB2fveMc7hv9YkFeiLQQIECBAgAABAgTWEsjwmjdLHwLz4Pzwww/Pnn/++SXf4LaJAIHzCHzhC1+Yf6Wj/oEqIh7v46mvFQQIECBAgAABAr0LCM/9jFB+VHuWwfnWrVvnyQfOJUDgAQJ5JXoRoH+zn5cALSFAgAABAgQIEOhZQHjuZ3Tm33F2xfkBqcduAjsSeMtb3lIBOr/iYSFAgAABAgQIECCwUkB4XslzsJ35q9qz/I6zhQCBwwh89KMfrfD8wsGe6SoiQIAAAQIECBAYrYDw3MfQzT+ynT8OZiFA4DAC+f3nxUe3f6uPlwGtIECAAAECBAgQ6FlAeO5jdPKXw+e/qn2Y2KAWAgRSYBGe895CgAABAgQIECBAYKWA8LyS52A7hWdZjsARBITng73GqYgAAQIECBAgMHoB4bmPIRSejxCcVElAeO7jBVArCBAgQIAAAQJjEBCe+xgl4VmOI3AEAeG5jxdArSBAgAABAgQIjEFAeO5jlITnIwQnVRIQnvt4AdQKAgQIECBAgMAYBITnPkZJeJbjCBxBQHju4wVQKwgQIECAAAECYxAQnvsYJeH5CMFJlQSE5z5eALWCAAECBAgQIDAGAeG5j1ESnuU4AkcQEJ77eAHUCgIECBAgQIDAGASE5z5GafTh+e7du7OnnnpqdvPmzdnt27dnly5dmt25c2ejOHT16tXZjRs3NjpnnYOz3GrXI4880v5t31muZ3tr2WUbWofWp+o6z306NcHv3uPsZy7r1reqv6v2tW3PcX7sscfmbRh6pkGZZ3m15ONqa207xn1j2McrgVYQIECAAAECBAh0K/DXIiIDtOW4AqMPz23waUNju/1Bj9cNaw8qp92fAa1CW7br4sWL94Xl3D8MfO3553m8rcM6dWZ4zn+syJBcS/YlQ+wm/2ixynzVvqqzQnoZt22oUJ3b6rj6x5Hcl+3fpK1V5y7vhefjvvCpnQABAgQIECAwJoEMz//ZmBo80bYePTy3VwjbMJmh6Nq1a/euLFZIqjD0xBNPzK84vvjii/Mw9PGPf/zesRXk6tgKKhmmhkt7JTUft8Gtzm9D2LDePL7Kb9t4+fLle2F5WXjOduTxdU7eZ/1VZ9XT1l31tP1o/TIUvvTSS/c55Hpdmc8689wqpw3BWX+2ua7Wtvtas2zjcF8G0bzin22p9lcbyzfLzfLb/i4b3zo+25iPz1raOvOYtt5sR/sJhGGbc31V2WfVucvtNQYTfV3RLQIECBAgQIAAgR0K/OcR8Z/usDxFbSdw1PDcBp4MJhm42nBVYTqDUgbi3F/n1HG1nvuGoSmPqeNyf5U3DEF5TIWp9nFbdj2u8mq9gmRbfrYjg2Iek0uuD688V3/r/Kq3yq168rh8XOttPcMAWWW0DlVe+aRBPq7tVW7e1z865Pl13LwDzX+GQbT6UedWuVVf9bvGcJ36qh9Nta94OOx71Zvty7rLddi+XB+OzysKP8AG4Xm7FyxnESBAgAABAgROUeC/iIj3n2LHO+tzV+G5zSwZoCpo5fYMRbnehqTcXusV1uqKY4W13D48br6h+U8b1trHbdn1uEL2cL0Nc1ln2/ZtwnPVs6ofw5BYXTorPA+Pz/UKvdneanP1LfcPl2xXE/zmj9t/lGjPrTGrMtr1VfXlvup/nTu8r3qqzRX487y8rQrPaZr78/5YS2PY2UuC5hAgQIAAAQIECPQm8GMRcbm3Rp1ge44anjO4VDjMMFFBLrcPA1QFrwpNFeza9TY0tuU2QWVpKGvrah+3ZbePs33D9ayvPrpcba1gdlZ4bkNe1bus3HRp+5CP89z2/Kor71uHtrzh8e1xVf+yvrVlD8vI8/JWS1vfcF+eW8fmfa7n0p6T6+2+KnfZfbY/g3t6pH3ecl7kTXg+wVczXSZAgAABAgQITFTgxyPihyfatzF16+jhuQ1FbegZBq9aHwatdr0Ng22YbetY9rgNa+3jCuDZrraeLGO43taXx2c5tWS76uPLtS3vq0/1OMPkqnLbc/Nx69Xuax3a8obH53r9g0Xb7/acttx8PAzPZbQsCOe21qFdX1Vfu29Y/1nrrX/b/7Pa7MrzmF6mtJUAAQIECBAgcNoCH4qI/+i0Cbro/VHDcxt4MuS0oTMDVAW7Cmi5fxjs2vVhaMoy8pZL7jvre7xtWMvHddUy68urmg+qN8tv+5J1Peg7z1lm+3HnakPbn3nDByG77Uc+bkN5lpG33F4fX2/La8+t7Xl8LlV/Pq592cbhMgzPuT+Pq7Fqz23bV2O4Tn1tW4b113pbT25r21V1teOW+2vJdrXjU9sPed98kqCLFwKNIECAAAECBAgQ6FfgwxHx3n6bdzItO2p4zrCSAaeCRAWw3J4BKgNOfSy3ws8wNLXrFZqqnNpX5VcZbbjMunJ7HpP3VUauZ/0ZpNsQlo9zqbJrPc+rj23nvjw368kl76sf1ZY2OOcxFRiH5bZ11bnVj9zX+lXorz6kwya/tl3lDttQbcv68piqJ9dzqePzuHpcLnl8tjvbkr+uncfk0pZ51jl5bt7qnPmJzX9a1xrz2t3uG55f5daxx7ivsTyZVxodJUCAAAECBAgQ2EjgTzRH/zcR8Vea9T/SPPbwcAJHD89nBZc2XJ11TM/bMzwOQ1vP7d132yogZ3DdZMl/CHjuuec2OWXlsVlehv+8P+YiPB/uRU5NBAgQIECAAIGxCfwbEfH/RsQvRsS/GxHXI+IHI+ItEXEzIj41tg5NpL3C8x4TVIbnugK7x2q6Lbq9Kp5hcZt/TMgydmnYy5gIzxN5BdUNAgQIECBAgMCeBH4yIn4vIr4cES9FxP8ZEf8yIr4SEX91T3UqdrVAt+G520SoYQR2ICA8r35hspcAAQIECBAgcOoC/1ZEfHXxpvFLEfEHi8f//NRhjth/4XkHQUgRBDYVEJ6P+KqnagIECBAgQIDASARuNKE5f0goQ/STI2n7FJspPG+aehxPYAcCwvMUX071iQABAgQIECCwW4ELi49t1y8sf363xSttQwHheQdBSBEENhUQnjd8pXI4AQIECBAgQOBEBf5ORLy8uOr8/Sdq0Eu3hedNU4/jCexAQHju5SVQOwgQIECAAAECfQvkn6zK7z7nD4ZZjisgPO8gCCmCwKYCwvNxX/jUToAAAQIECBAYk0B+XPvHx9TgibZVeN409TiewA4EhOeJvqLqFgECBAgQIEBgxwI/vXjjmH+y6q07LltxmwkIzzsIQoogsKmA8LzZC5WjCRAgQIAAAQKnKDAPzq9+9avrB8ME6OPOgvflm/inn3560/f+jidAYEuBL3zhC/X691vHffqrnQABAgQIECBAoFeBe8H5hRdemL3nPe+pN5AC9PFG7NEMzxcuXNgyBjiNAIFNBT760Y/Wa98Lx3vqq5kAAQIECBAgQKBXgfuCc73ZFKC7GK78/vns+eefr2FxT4DAHgXe8pa3VHh+bxevABpBgAABAgQIECDQjcDS4FzvTQXoo4/T/KPbDz/88OzWrVs1LO4JENiDwAc/+MEKzr959Ge+BhAgQIAAAQIECHQlsDI413tTAfroY/axvPqcAdoV6JqV7gnsTiC/5/zkk09WcM77x4/+rNcAAgQIECBAgACBbgTWCs719lSAPuq4PRQR8wBd34HOHxG7cuWKGwNz4BxzIK80v+Md72hDcz7+/qM+21VOgAABAgQIECDQlcBGwVmA7mbs8iPc8+9AZ4h2Y2AO7HQO/GxEXOjm2a4hBAgQIECAAAECRxfYKjgL0Ecft7YB+SvcGaTz70Cf93blHGUMz33Q+qq2PujcVftX7cs6V+1ftW/Zuav6MNx3KyL+h4XvqnpW7VvWhvb49vGDjl22f9jmdn3TsttzH/R4WPaDjt/X/h9dXGn+tvYJ5jEBAgQIECBAgACBcwVnAdoEIrC2wMWI+EpE/OraZziQAAECBAgQIECAAIEuBHYSnAXoLsZSI/oX+EeLj1T/bkQ81n9ztZAAAQIECBAgQIAAgRTYaXAWoE0qAisF/lxEZGiu76X/byuPtpMAAQIECBAgQIAAgS4E9hKcBeguxlYj+hT4h01wzgCdQfptfTZVqwgQIECAAAECBAgQSIG9BmcB2iQj8AqB9qrzlyLi5UWQ/t9fcaQNBAgQIECAAAECBAh0IXCQ4CxAdzHWGtGPwD+JiAzNecX5X0TE5xb3X46I7+6nmVpCgAABAgQIECBAgEAKHDQ4C9AmHYG5wJ+NiH8VEdci4lsi4oWIeGtEvCMi/q+IyL8jbCFAgAABAgQIECBAoBOBowRnAbqT0deMYwtkaK6lwnOtuydAgAABAgQIECBAoBOBowZnAbqTWaAZvQgIz72MhHYQIECAAAECBAgQaAS6CM4CdDMiHp66wP+y+Nj2qTvoPwECBAgQIECAAIFuBLoKzgJ0N/NCQ44rkOE5vwdtIUCAAAECBAgQIECgA4Eug7MA3cHM0IRjCwjPxx4B9RMgQIAAAQIECBBYCHQdnAVo8/TEBT7hyvOJzwDdJ0CAAAECBAgQ6EJgFMFZgO5irmjEcQSE5+O4q5UAAQIECBAgQIDAPYFRBWfsmq8GAAAgAElEQVQB+t64eXBaAhme/9xpdVlvCRAgQIAAAQIECPQjMMrgLED3M4G05GACwvPBqFVEgAABAgQIECBA4H6BUQdnAfr+wbQ2eYG/58rz5MdYBwkQIECAAAECBDoUmERwFqA7nFmatC+BDM8X91W4cgkQIECAAAECBAgQeKXApIKzAP3KAbZlkgLC8ySHVacIECBAgAABAgR6FZhkcBage51u2rVDAeF5h5iKIkCAAAECBAgQILBKYNLB+cAB+jsj4m8vbrOI+ExEfHuD/0xE5Pa8fV+z3UMC2wr8ckQ8tu3JziNAgAABAgQIECBAYD2BkwjOBwzQGZ4zGOf9N0XERyIiA3MuGZYz6PzRRaDOYJ3HWQicR0B4Po+ecwkQIECAAAECBAisIXCw4Hz79u3ZpUuXZnfu3Kkce+/+5s2bs6eeemr2xS9+cX6f6/tc3vOe99SV3y9HxFvXcNrkkAzDFZDzvAzMFZ7zvr3anOu1b5M6HEugFRCeWw2PCRAgQIAAAQIECOxY4GDBOYPwqvBcQfnu3bsHCc9Z3x4DdIbnvNqcV51zqfBcV6Hb8Fz7Foe6I7CVwC/52PZWbk4iQIAAAQIECBAg8ECBnQbnGzduzK5evTrPwHll+bHHHpvV1eO6qvyZz3xmfuX52rVr86u+jzzyyDxQ50l1zPDKcwbuPC4/Bp1lLrtqXcF7m/s9BeizwnMOiivPD5yaDthCIMPz27Y4zykECBAgQIAAAQIECKwQ2GlwztCaIffy5cuzvHKcj5944onZxz72sXmezWCdtwrC+TiXDNv5Ue08Z1l4Hobw9vh5ATv6zx4C9KrwnFea6yPd+SNivvO8YqLatbaA8Lw2lQMJECBAgAABAgQIrCew8+CcGTaDbn6fOQNyBuEMzhl2c3uG6tyet4sXL87v85wKzGeF59zfXm3O88/6zvR5c/SOA/Sq8JyjlFef6zvX7Ue41xtBRxF4pYDw/EoTWwgQIECAAAECBAhsLbCX4FzBNcNyBt78WPanP/3peXj+7Gc/O7+6nCF6GH7XCc9NyHzFR72r3l3d7zhAbz1ITiSwhcAvRsR3b3GeUwgQIECAAAECBAgQGAjsNThngM0wfP369XtXnDNE13ru3yY818e6dxWQH1SOAD2YNVbHIiA8j2WktJMAAQIECBAgQKBrgb0H5wrH+V3n+u5zhulcz/va337s+kFXnoffec7vSrcf435QEN52vwDd9VzWuOUCwvNyF1sJECBAgAABAgQIrC1wkOCcQbX+zFT9INjwSvNw/UHhuQJ3/dp2++vc2wbjdc8ToNeeXw7sQ+DjPrbdx0BoBQECBAgQIECAwDgFDhac1w2lYzpOgB7npD/RVmd4fvuJ9l23CRAgQIAAAQIECJxLQHDeQVIXoM81B518OAHh+XDWaiJAgAABAgQIEJiQgOC8g+BcRQjQE3pmTLcrwvN0x1bPCBAgQIAAAQIE9iQgOFfq3eG9AL2n2arYXQn8QkR8z64KUw4BAgQIECBAgACBqQsIzjsMzMOiBOipP31G3T/hedTDp/EECBAgQIAAAQKHFFg7OLe/cn316tVZ/Tr2MCzWev3JqPa4+mXtOn/Zn5Aa/mmpKiciZnnb999wrvqyv8Nf+q6+rXufZeWf2XrnO985b3tEfDki3nrIAVYXgRUCwvMKHLsIECBAgAABAgSmLfBvR8S/s2YX1w7Ow7BY4Xe4fbie4fPixYvzEJr7Mhi34TfLyVstw+MryLYBfFhGnbur+6ozw/N5lwrP2S9XoNeclQ47pMDP+9j2IbnVRYAAAQIECBAg0JPArYj4/Yj46JIQ/UxdvY2IX8vH3/iN3zh79NFHZ9euXZtfGW3/JnKGxwy+uS0D74svvji//+mf/um6inrv6nMeW2W34TjDZ4XdT3/60/cF6dw3DKrDUF7n5hXrWurqdYXbDKb1N52HV7KXtavOf+KJJ+ZtzmNqW13ZznJye5adV46znbmej/OWx7VW1Y8yyH60Zdax7373u+85LY79zp4mj7acnECG58dPrtc6TIAAAQIECBAgQCAi/mREfGkRoL/ShOgMaR+JiG+KiP8+g1sG55/5mZ+Zh8C6+tuG1QyLFfoyuOZ6BeM25LZXiyswVnl5Xm3LOrP84VJ1fuITn7hXfnvesnOqjAqtdUzWW22sUJ3trjbk/vZxldOel8dnW/N+GJ5re1tGPa42tB7ZvgzbuS2XrOfNb35zBeivRsTnIuLbzVwCRxIQno8Er1oCBAgQIECAAIE+BP5uRHwtg94iRGdI+0RE/M8VnF/96lfPXnjhhXmoaz9W3Ya9DI/tldxcr2CaIbDCYt7X9gyI7XEVTvOYNojX9ryv8FnBtPbV9izvrKUNt3lMG1yH7cj17M9LL700b2+1f1hPu96WX+enUS55fjoMl9Zw+LiuaDcf4f6DiPgP+5g2WnGCAsLzCQ66LhMgQIAAAQLHE7i+CGl1Nc394oetjuzyO4P686Pc+WNV8/H5wAc+MM98bTjMDW3YWxY+KyQPw3OVW/dt6K5Ae/ny5ftCdhs6h3XlvgqxFXLb4+vxMNC27c/zqr15fPW1wnOem0ueU6E216ve3F/n5DHDNrbhOfdV3/O+/qGgbU/V0x7n8R/ORw5Hc/h/IuLPH+9/H2omQIAAAQIECJyWQF7l9OarrzFfduU5vwP9JyLipzKofMM3fMPsJ37iJ+67UlsBs65ED8Niuz4Mz8uuwLZBNINmhdJlYbgtO8+rZRiAa3vWl+e04Tb3VVDP+2GZud5eec71XKpdy9bb8oflVXiuUFznDwNzfWy73d5cefbr2309d7SGAAECBAgQIECAwN4EhOe90W5VcPud5/y4dv1w2PdFRP5gWC7/XQbo9jvPFWjbsDoMi+16G57bwJphNPfVFd/28TDczpPr4j9t2e32CqbVvtyXj+vK9nB/W1+2K68AZ9kVkHN/Pc7ttQz7nT65f5vwnGUtu/KcdWX9zXee8zvp+Z1nPxq2mJjuCBAgQIAAAQIECExZQHjua3TP+rXt/KGw/MGw+njxJytA569tZ9jN9QqlGfSGgbZdz4CYx+d9HVtlVxltiJwftPhPbq9jantbdm2r+wrIw/Jrf4XkYftzf5Zb51WgXxaea1sem8flR8zz3HXCc9ZTHnn+9evX52Xk+VVuheklv7ad/6hhIUCAAAECBAgQIEDgBASE574GOf/Oc97WWe59hPvnfu7nKou635OAj2qvMyUdQ4AAAQIECBAgQGC6AsLzuMf2Z/NqaX6EO39927IfAcF53E8SrSdAgAABAgQIECCwCwHheReKxy1jfgW6/nzVfuLj6ZYqOB93cqudAAECBAgQIECAQC8CwnMvI3G+dgjQe8j3gvP5JqWzCRAgQIAAAQIECExJQHiezmgK0DsM0ILzdJ4YekKAAAECBAgQIEBgFwLC8y4U+ylDgN5BgBac+5nQWkKAAAECBAgQIECgFwHhuZeR2F07JhGg828q5+3Qi+C8u4moJAIECBAgQIAAAQJTEhCepzSaX+/LqAN0/X3nQ4dnwfnrE8gjAgQIECBAgAABAgTuFxCe7/eY0trRAvTt27dnjzzyyCxD8KbLnTt3Zk899dT8dsjwLDhPaerrCwECBAgQIECAAIHdCwjPuzftqcSDBei7d+/OA2/+3ekMv7meS11Fzu3t7axgnYH5xo0b849sHyo8C849TVltIUCAAAECBAgQINCngPDc57jsslV7D9AZhPNKc15xPs+S51++fHkevDM4HyI8C867nGrKIkCAAAECBAgQIDBdAeF5umPb9mzvAfqsK8/rhuk8P4NzBfBDhGfBuZ0iHhMgQIAAAQIECBAgsEpAeF6lM619ew/QFZTb7zyv+7HtOqf9aHc+3tfVZ8F5WpNbbwgQIECAAAECBAjsW0B43rdwX+UfLEBXkN72fp9XngXnvial1hAgQIAAAQIECBAYg4DwPIZR2m0bRxGg9xWeBefdTialESBAgAABAgQIEDgVAeH5VEb6/n6OIkBve9X6rPME5/sngTUCBAgQIECAAAECBNYXEJ7Xt5rakScVoAXnqU1f/SFAgAABAgQIECBwWAHh+bDevdV2EgFacO5t2mkPAQIECBAgQIAAgfEJCM/jG7Ndt3jSAVpw3vV0UR4BAgQIECBAgACB0xQQnk9z3Ie9nmSAFpyHw2ydAAECBAgQIECAAIFtBYTnbeWmd96kArTgPL0JqkcECBAgQIAAAQIEjikgPB9Tv7+6JxGgBef+JpYWESBAgAABAgQIEBi7gPA89hHcfftHHaAF591PCCUSIECAAAECBAgQIBAhPJsFywRGGaAF52VDaRsBAgQIECBAgAABArsQEJ53oTjNMkYVoAXnaU5CvSJAgAABAgQIECDQi4Dw3MtI9NmOUQRowbnPyaNVBAgQIECAAAECBKYkIDxPaTT305euA7TgvJ9BVyoBAgQIECBAgAABAvcLCM/3e1hbLtBlgBaclw+WrQQIECBAgAABAgQI7F5AeN696VRL7CpAC85TnWb6RYAAAQIECBAgQKBPAeG5z3HptVVdBGjBudfpoV0ECBAgQIAAAQIEpisgPE93bPfVs6MGaMF5X8OqXAIECBAgQIAAAQIEVgkIz6t07DtL4CgBWnA+azhsJ0CAAAECBAgQIEBg3wLC876Fp1v+QQO04DzdiaRnBAgQIECAAAECBMYgIDyPYZT6beNBArTg3O8E0DICBAgQIECAAAECpyIgPJ/KSO+vn3sN0ILz/gZOyQQIECBAgAABAgQIrC8gPK9v5cizBfYSoAXns8HtIUCAAAECBAgQIEDgsALC82G9p1zbTgO04DzlqaJvBAgQIECAAAECBMYnIDyPb8x6bvFOArTg3PMQaxsBAgQIECBAgACB0xQQnk9z3PfZ63MFaMF5n0OjbAIECBAgQIAAAQIEthUQnreVc94qga0CtOC8itQ+AgQIECBAgAABAgSOKSA8H1N/2nVvFKAF52lPBr0jQIAAAQIECBAgMHYB4XnsI9h3+9cK0IJz34OodQQIECBAgAABAgQIRAjPZsG+BVYGaMF53/zKJ0CAAAECBAgQIEBgFwLC8y4UlfEggaUBWnB+EJv9BAgQIECAAAECBAj0IiA89zIS02/HfQFacJ7+gOshAQIECBAgQIAAgSkJCM9TGs3++3IvQEfELCK+HBFv7b/ZWkiAAAECBAgQIECAwKkLCM+nPgMO3/95gI6IrwrOh8dXIwECBAgQIECAAAEC2wkIz9u5Oet8Ap+PiB89XxHOJkCAAAECBAgQIECAwOEEhOfDWY+lpu+MiI9ExDctGvztEfFji/XclvvyI9d5y2NzGW7/vsX2s+7Mu7NkbCdAgAABAgQIECBAoEsBIabLYTlqo/5oRPztiMjQnEsG4QrDz0RE3nLJ4PyZxXG5v7bn+Rmw8/6sxbw7S8Z2AgQIECBAgAABAgS6FBBiuhyWozcqg3CG47yinFedM0hnGP7lJVeb87g2PK/TePNuHSXHECBAgAABAgQIECDQjYAQ081QdNWQDMQZoNuPbFd4ro9s1317Vbq25fmrFvNulY59BAgQIECAAAECBAh0JyDEdDckXTSoPnr9Hzcf2c5t7ce5z2roOseZd2fp2U6AAAECBAgQIECAQJcCQkyXw9JFo/LKc32nuRqU2/KWS16Vzv11lbquQFfwzvuzFvPuLBnbCRAgQIAAAQIECBDoUkCI6XJYumhUhuL2V7ezUWf9qnYG5fw+tI9tdzF0GkGAAAECBAgQIECAwK4FhOddi06nvLzCXFeTd90r827XosojQIAAAQIECBAgQGCvAkLMXnlHWXhdXR5edd5lZ8y7XWoqiwABAgQIECBAgACBvQsIMXsnVsESAfNuCYpNBAgQIECAAAECBAj0KyDE9Ds2U26ZeTfl0dU3AgQIECBAgAABAhMUEGImOKgj6JJ5N4JB0kQCBAgQIECAAAECBL4uIMR83cKjwwmYd4ezVhMBAgQIECBAgAABAjsQEGJ2gKiIjQXMu43JnECAAAECBAgQIECAwDEFhJhj6p9u3ebd6Y69nhMgQIAAAQIECBAYpYAQM8phG32jPxkRV0ffCx0gQIAAAQIECBAgQOBkBITnkxnqrjr6SxHxtq5apDEECBAgQIAAAQIECBBYISA8r8Cxa28CL0TEW/dWuoIJECBAgAABAgQIECCwYwHhecegiltL4FMR8V1rHekgAgQIECBAgAABAgQIdCAgPHcwCCfYhH8QEf/eCfZblwkQIECAAAECBAgQGKmA8DzSgRt5s/9xRPzJkfdB8wkQIECAAAECBAgQOCEB4fmEBrujrv5aRPzxjtqjKQQIECBAgAABAgQIEFgpIDyv5LFzTwL/NCIu7KlsxRIgQIAAAQIECBAgQGDnAsLzzkkVeIbAtzTbb0XEdzTrHhIgQIAAAQIECBAgQKBrAeG56+GZTOO+LyJ+PyJ+PCK+OSI+FxH/ZkQ8EREvRcRfm0xPdYQAAQIECBAgQIAAgUkKCM+THNYuO/X5iPjK4valiPjNiPhiRPxeRLy5yxZrFAECBAgQIECAAAECBBYCwrOpcCiB90TEv4qIWUT87uL+axHxPx6qAeohQIAAAQIECBAgQIDAtgLC87ZyzttG4J8vQnMG6LzlR7l993kbSecQIECAAAECBAgQIHBQAeH5oNwnX9lfjYj8yHYF5586eREABAgQIECAAAECBAiMQkB4HsUwTaqR/19z9fnbJtUznSFAgAABAgQIECBAYLICwvNkh7bbjn1g8XHtv9FtCzWMAAECBAgQIECAAAECAwHheQAyotVHI+J9EfHsyG5/PSJ+PSL+y5G1O53TO90tBAgQIECAAAECBAicmIDwPL4BzwCXf/apfnTL/eEt0j/HwUKAAAECBAgQIECAwIkICM/jGeiHIuJjFZovXLgwe/rpp2dXrlxxO5BBeqd7jcFiPHJcLAQIECBAgAABAgQITFxAeB7PAM+D88MPPzx7/vnnZ5bjCaR/jsMiROe4WAgQIECAAAECBAgQmLiA8DyOAc6PCM8D261bt46XGtV8TyDHoQnQPsI9jueRVhIgQIAAAQIECBDYWkB43pruoCfOv+PsivO97NrFgxyPxdXnHB8LAQIECBAgQIAAAQITFhCe+x/c/HXn+Xdtu0iMGnGfQPMdaL/C3f9zSQsJECBAgAABAgQIbC0gPG9Nd7AT5x/Zzh+rsvQnkOOyuPrso9sHe0qoiAABAgQIECBAgMDhBYTnw5tvWmP+feH5L2r3Fx21KH/tfBGec5wsBAgQIECAAAECBAhMVEB47n9gheeOM7rw3P8TSAsJECBAgAABAgQI7EJAeN6F4n7LEJ6F5/3OMKUTIECAAAECBAgQIPBAAeH5gURHP0B4Fp6PPgk1gAABAgQIECBAgMCpCwjP/c8A4Vl47n+WaiEBAgQIECBAgACBiQsIz/0PsPAsPPc/S7WQAAECBAgQIECAwMQFhOf+B1h4Fp77n6VaSIAAAQIECBAgQGDiAsJz/wMsPAvP/c9SLSRAgAABAgQIECAwcQHhuf8Bnnx4vn379uzy5cuzu3fvzvLxI488Un87efbYY4/N7ty5M4/PeZ/r+XeVn3rqqfnxlavb865evTrfnOVlublvX0vzp6qu9D+VtJAAAQIECBAgQIAAgW0FhOdt5Q533qTD8zDg3rx58xXBOINvHpeB+caNG/McnAG5QnKF6jx3eFwbzPcRoJvwnONkIUCAAAECBAgQIEBgogLCc/8Du7fwXEE1r87m1dyzrvLmvgqqGUYvXbp072pwlZGhtYJrHp+3CroZWvO42t5eNc7tVXYel+e06xV4MyBnvXUVOc+r9g7blGW0dWR5efw+liY8u/Lc/3NJCwkQIECAAAECBAhsLSA8b013sBP3Gp7bkJshM28Vgiv8Zji9ePHiPLgOg2qG0gqqbfDNsJvb8749v8qugDwMtrleITvvK/QO623LbNuQATnXK1jXetW36wDdhGdXng/2lFARAQIECBAgQIAAgcMLCM+HN9+0xr2G5zZkDgNqBc32qu/wmDa4tuG5zs374ZXgOueLX/zifd9JrmBdoT2Py+8/Z53DQNyG52XlD/tV36lu27WLx8LzptPZ8QQIECBAgAABAgTGKSA89z9uew3PddU4g2QbjDOstleAK8S2x+Q5FYQz+ObSXjnOfblkuG3LyscZbn/jN37jvo9izw9u/tOG6WG9bXgetiHXjxCefWy7/+eSFhIgQIAAAQIECBDYWkB43pruYCfuNTy3IbNCZ4ba3F7hd9WV5+FV38q+7Tl5zLKPTWc4XvVr2BWesx1teVlHtTW3D4P1sE2535Xng81XFREgQIAAAQIECBCYpIDw3P+w7jU8t98rzoCbtwykbXjOMNpeec7HGV4r3NbV6zw3j80ly1j2nefcl8e15ywL6cOAXHVV+dXWqqvaOzyuysnj97E0H9t25bn/55IWEiBAgAABAgQIENhaQHjemu5gJ+41POcvWOctQ3QF2gyZGVLro9bXr1+f76uQW/syRNe+DK0Vuuu8Or4CbG0fXu1ug21eJc5y89gK7BV62/Lbtub+9ry2vNyX621bqrxd3DfhOcfJQoAAAQIECBAgQIDARAWE5/4Hdq/heRhCdxEoNykjQ/eqj25vUtayY/f5ke2sT3ju/wmkhQQIECBAgAABAgR2ISA870Jxv2VMOjxnAN1XwN13MBee9zvxlU6AAAECBAgQIECgJwHhuafRWN6WvYXnZVdqbdtMwJXn5ZPWVgIECBAgQIAAAQJTExCe+x9R4XmzPHvQo4Xn/p9AWkiAAAECBAgQIEBgFwLC8y4U91uG8HzQOLxZZcLzfie/0gkQIECAAAECBAj0IiA89zISZ7dDeN4szx70aOH57IlrDwECBAgQIECAAIEpCQjP/Y+m8HzQOLxZZcJz/08gLSRAgAABAgQIECCwCwHheReK+y1DeN4szx70aOF5v5Nf6QQIECBAgAABAgR6ERCeexmJs9shPB80Dm9WmfB89sS1hwABAgQIECBAgMCUBITn/kdTeN4szx70aOG5/yeQFhIgQIAAAQIECBDYhYDwvAvF/ZbxvoiYPf300wcNhSpbTyDHJccnInKcLAQIECBAgAABAgQITFRAeO5/YB/NcHbhwoX10pyjDiqQ47IIzzlOFgIECBAgQIAAAQIEJiogPI9jYD+fAe35558/aDBU2WqBHI9FcM7xsRAgQIAAAQIECBAgMGEB4Xkcgzv/6PbDDz88u3Xr1upEZ+9BBHIccjwW4dlHtsfxPNJKAgQIECBAgAABAlsLCM9b0x38xI9lUMvA5gr0QfLxmZWkfxOcc1wsBAgQIECAAAECBAhMXEB4Hs8APxQR8wCdITq/a5s/VpW/9ux2GIP0br7jnFedczxyXCwECBAgQIAAAQIECExcQHge3wDnR4Tn34FefGS4Pjrs/g9/9foQDunvo9rje+5oMQECBAgQIECAAIGtBYTnremOfmL+unMGuPw70Me8XVnUf9b9sG1/PSJ+f9Dms85dd/uwjn2tp7df1T761NcAAgQIECBAgAABAocXEJ4Pb37qNb46Ir586gj6T4AAAQIECBAgQIDAuASE53GN1xRaKzxPYRT1gQABAgQIECBAgMCJCQjPJzbgHXRXeO5gEDSBAAECBAgQIECAAIHNBITnzbwcfX4B4fn8hkogQIAAAQIECBAgQODAAsLzgcFVF8KzSUCAAAECBAgQIECAwOgEhOfRDdnoGyw8j34IdYAAAQIECBAgQIDA6QkIz6c35sfusfB87BFQPwECBAgQIECAAAECGwsIzxuTOeGcAsLzOQGdToAAAQIECBAgQIDA4QWE58Obn3qNwvOpzwD9J0CAAAECBAgQIDBCAeF5hIM28iYLzyMfQM0nQIAAAQIECBAgcIoCwvMpjvpx+yw8H9df7QQIECBAgAABAgQIbCEgPG+B5pRzCQjP5+JzMgECBAgQIECAAAECxxAQno+hftp1Cs+nPf56T4AAAQIECBAgQGCUAsLzKIdt1I0Wnkc9fBpPgAABAgQIECBA4DQFhOfTHPdj9lp4Pqa+ugkQIECAAAECBAgQ2EpAeN6KzUnnEBCez4HnVAIECBAgQIAAAQIEjiMgPB/H/ZRrFZ5PefT1nQABAgQIECBAgMBIBYTnkQ7ciJstPI948DSdAAECBAgQIECAwKkKCM+nOvLH67fwfDx7NRMgQIAAAQIECBAgsKWA8LwlnNO2FhCet6ZzIgECBAgQIECAAAECxxIQno8lf7r1Cs+nO/Z6ToAAAQIECBAgQGC0AsLzaIdutA0Xnkc7dBpOgAABAgQIECBA4HQFhOfTHftj9Vx4Ppa8egkQIECAAAECBAgQ2FpAeN6azolbCgzD8x/ZshynESBAgAABAgQIECBA4GACwvPBqE+6og9GxO9ExHsjosJzhub/JCK+HBE/dNI6Ok+AAAECBAgQIECAQPcCwnP3QzSJBv6xiPhaRHwxIv7viPiDiLgTEb8VEXcj4hsn0UudIECAAAECBAgQIEBgsgLC82SHtruOfWgRmmcR8dsRkfdfiYhnu2upBhEgQIAAAQIECBAgQGAgIDwPQKzuTSCvPucV5wzNdfvdiPjX9lajggkQIECAAAECBAgQILAjAeF5R5CKWUvgv2oC9FdddV7LzEEECBAgQIAAAQIECHQgIDx3MAgn1IT26rOrzic08LpKgAABAgQIECAwXYFHI+J9iytj+Z3Mqd5uR8TfmnD/ctyeiYj3RMR3THe63tez3ufuP1r8eNjfn9C8y9eKdLcQIECAAAECBAgQOBmBfBP8+eY7mfXdTPdf/57qmC0+ERHfNdHZbO4ef47ma0eOg4UAAQIECBAgQIDAZAUeioiPVWi+cOHC7Omnn55duXLFbeQGzzzzzOzSpdo8KREAAAyHSURBVEuz17zmNW3o/+EJzWRz98hzNF8r8jWjXj8WryU5LhYCBAgQIECAAAECkxOYB+eHH3549vzzz88s0xO4e/fu7P3vf38bcH5wIrPY3O1kuuZrR76GLEJ0jouFAAECBAgQIECAwKQE8mOW8ze9t27d6uRtuGbsS+DDH/5whZv8tedvHflMNnf3NVG2LDdfQ5oA7SPcI3+CaT4BAgQIECBAgMD9AvPvOLvivGVaGOFp73rXuypA/9j9U2F0a+Zuh/MvX0sWV59zfCwECBAgQIAAAQIEJiGQv5A7/75ih+/BNWlPAjdv3qxw87kRz2Jzd0/zYxfFNt+B9ivcI36SaToBAgQIECBAgMDXBeYfe80f/LGclsBrX/vaCtDf/PXpMKpH5m7HUzZfUxZXn310e1RPK40lQIAAAQIECBA4SyD/DvD8F7U7fh+uaXsQeMMb3lDh5g1nTY7Ot5u7e5gXuyoyf6l/EZ5znCwECBAgQIAAAQIERi8ggOwqLYysHOF5ZAM2suYKz6P/f4MOECBAgAABAgQIDASE55GFkl01V3jelaRylgkIz4NXWqsECBAgQIAAAQKjFxCel73zP4FtwvMJDPIRuyg8j/7/DTpAgAABAgQIECAwEBCejxgwjlm18HxM/enXLTwPXmmtEiBAgAABAgQIjF5AeJ5+jlnaQ+F5KYuNOxIQnkf//wYdIECAAAECBAgQGAgIzzsKC2MrRnge24iNq73C8+CV1ioBAgQIECBAgMDoBYTncWWSnbVWeN4ZpYKWCAjPo/9/gw4QIECAAAECBAgMBNYOz1evXp3duHFjydvk7Tfdvn179sgjj9Tfg5099dRTs7t3725cYNu29vGDCrpz587sscceO3f9D6on92dfL126NMs6e1iE5+1HIedoztWbN2/OxzPHNcd3LEs+R7Lt7dI+b7J/ly9fPlefmvB8ZfCaY5UAAQIECBAgQIDAKAWOFp4rOLdv4vMN/LYBuoJAGwJq27L7Cs7tPwjk4/PWv6yu3DbC8Px4RLy241m99tw9a0x2sT3n0ZjCcz7f8jnSLrkeEff941jO1wzQ2/xjVpbdhOccJwsBAgQIECBAgACB0QusFUAyVOab63qD3QbU9ipcPX7iiSfmx7744ovzMFpvzvP8euOeb+Lzqm97JTbfsF+8eHEeNHN/Btl8A5/ntcdmGVVHtq3aM2xnvolv6879teTjYVCu9legz/vqd3ts1ZdltefU47bOfFxBve1HHVvlt3WmQV6Rb+tcFWZW7av+Du9XXHn+UxHx8xHxexHxKx3P8LXm7rDf7ZiVfc2Ls+ZcjVXNuZrXdZ/l5HjlONSxVXaNa9uOOub69ev3PnmRbah50871OnZYXjsHs+w6Px9nO+oTHcOy2ivKVXaWNSwvy8lty9rf9uWsx014duW54yeRphEgQIAAAQIECKwvsHYAad9ct4/rDXi+ya7HuT+XWq8QmMdUyKhAWevDN+F5bAaGCjZZZpWb91Vmnpfr7XH1OO/ruAoUbTvruGHdub7s+Lb+Orf62JZbdbb9zfLaj21nWVVee1z7uG1Xnn/WlcBV+9oy2sdLwnOF5t+NiK8twtq3rD+VDn7k2nO37Xc+zrEr+5yHOV55n/bL5lyNcZ1T63l8ntdeeT5rXNs21PntPKl6a1/NryyvPa6eL1l3ba9zqj0ZmPNxLu35q+ZJHld1VluzjNy+zdKE5xwnCwECBAgQIECAAIHRC6wdQNo31+3j9o17Pa434cP1YdDIN+V57CKo3QvWuT3fuLdXzdrwmfW3b+rb9tTjYd1Z5nBfBYxl4SD3VTgZtqfKye1VTx5fj6v/bX/b9uf2NuDUeVlG3tp+tz7llPd53Kp9y/rUbmvC8/dGxC9ERBua86rzf9357F577rb9zsfplmM4XIb2NWYvvfTSfC7UuLbj1Y7xqnFt66rzq7yqJ8/PpeZXHZftyqXW87w8pz6l0Z5/Vh+y7Ny3rN9tnfOKFv/Jcs/6B5v2uGWPhefOnz2aR4AAAQIECBAgsLHA2gGk3tDnG+X2cb2hzzfm7eM8brjeBo1lb7jbN/75uA2vbUBo6x+2p/ZV3W3gzMe5v/ZVeFnWlty3Tv1V1rL+t/1t25/bMyAP25Z1DvtdbVsVZFbtq/OH9014/u2IeHnQlt8ZrL+irb3sz5C2zZLzoPqQ5rkM7WvMKjzXce2Yt2O8alzbNrbn5/aqJ8/PpeZwlVf1tvvaMnLe5Dm55LHVr7qvq9XtcfODm/9Unc2mebt2EJ59bHvjl2UnECBAgAABAgQI9Chw7vDcvsFv39Dnm/Dheh5bH3HNN/J5a5d2f4aA9gpsuz58o9+u1+Nh3W09+TjrbsNx7c/zs668tfvPqn9V/9v+tAGp3V711v2w3tq+KiCv2lfnD++b8JxXnj8+uPL8lYj4Gz1O2KZNa8/dYd/b9XYs2jHOY2p9k/Bc87utY/h4ODfbuZHHnjWH67x63uR9Hltzttrcztu27uxPHrtsqTrbfdvMqzrfledmpnpIgAABAgQIECAwCYG1A0j75jof1xv0fEOeV7jyvt7c5+NchuttUMk35vWx03rDnWGgAnNbbu7POvNWjytADNfbduYx1c6sO8uu84brWU5bf7Yvr9i1/Wrrr3Lbdj6ov2d957mtK8ursued3dN/mvD8hsVM/tNLQvQkv/PczpGcB+md9+1Y1rzKY4fj2q7neW1gzuNrnrTj2g5je35uz+OGc6PmaZZV8yHbV1eR67xcr+dMbqt5ncfmMpzTZ11JznqqzvmJi388qL7UtnXvm/DsyvMk/lehEwQIECBAgAABAmuH53xjnSE57+sNeq7nm/F8c59v1oehYLg+DBoVLurjpW0IyPIyUOQt91eAyDfvwzf67Xrbzjq2yh8GgbYfeUxbf56bbahz2/rb81b1v+1vnVN1lE2VX8El62zrWjesbHrckvBcz4b84bC8Ep3fe/5fa2OH92vP3aFNjUXZp3kuZ825Gqs6rl2vxxVqa73KrnFt50IdU+WtCs91bJVX52R7a99wXrfPq2pXHZ/zNfcPl/Y5VPtyW1tfbV/nvgnPOU4WAgQIECBAgAABAqMX2DqArPMG+jzH5Jv2Q4TI87RxzOeuCM81qU/u7zyfwpzLPg7D9rJ5nAH7rKvUy44fbhOe62nkngABAgQIECBAYCoCwvPwXf+JrK8Rnnuf4zufu6cQnnN6P+iKcl7RPusK9bpPD+G596eP9hEgQIAAAQIECGwqsPMAsu6ba8cdV0B4Pq7/1GsXnjd9KXY8AQIECBAgQIBA7wLC89RTzBn9E57PgLF5JwLCc+8v/dpHgAABAgQIECCwqYDwvJOoML5ChOfxjdmYWiw8b/pS7HgCBAgQIECAAIHeBYTnMSWSHbZVeN4hpqJeISA89/7Sr30ECBAgQIAAAQKbCgjPr3jbfxobhOfTGOdj9VJ43vSl2PEECBAgQIAAAQK9CwjPx0oXR65XeD7yAEy8euG595d+7SNAgAABAgQIENhUQHieeIg5q3vC81kytu9CQHje9KXY8QQIECBAgAABAr0LCM+7SAojLEN4HuGgjajJwnPvL/3aR4AAAQIECBAgsKnA+yJi9vTTT4/obbmm7kLgta997SzHPiK+edNJ08nx5u4uJsKeysjXlMX8ynGyECBAgAABAgQIEBi9wKP5BvfChQt7egut2B4Fbt68WcHmcyOeweZuj5Nr0aZ8TVmE5xwnCwECBAgQIECAAIFJCHw+3+Q+//zzHb8V17RdCrzrXe+qYPNjI5/B5u4uJ8aOysrXkkVwzvGxECBAgAABAgQIEJiMwPzjrw8//PDs1q1bO3r7rJheBT784Q9XsPlqRHzryGexudvZRMvXkHwtWYRnH9ke+RNM8wkQIECAAAECBF4p8LF8s5tvel2B7iyN7Kg5d+/enb3//e+vUJP3P/jKaTDKLebujubIeYvJ144mOOe4WAgQIECAAAECBAhMTuChiJiHkAzR+X3F/MGf/MVct3EbPPPMM7NLly7NXvOa17TB+YcnNIPN3SM/T/O1ovmOc86zfC3JcbEQIECAAAECBAgQmKxAfsxy/j3Sxccu28Dl8R/+OvWYHT4REd810dlr7h5/fuZrh49qT/QJplsECBAgQIAAAQLLBfIXcvNNcP4d6PZ2ZbDe7lvncZ7/oDJW7T/v+avauKrePO9Bde/7/GrDqj4s2/dMRLwnIr5j+VBPbutZc3eZzT631Xw4636dus86d93t69Sxi2PytcKvak/uqaRDBPYr8P8DU54rOjzjtGEAAAAASUVORK5CYII=;" vertex="1" parent="1">
                    <mxGeometry x="-70" y="-100" width="1045" height="843.5" as="geometry"/>
                </mxCell>
                <mxCell id="6" value="turningCounter" style="rounded=1;whiteSpace=wrap;html=1;absoluteArcSize=1;arcSize=14;strokeWidth=2;" vertex="1" parent="1">
                    <mxGeometry x="560" y="170" width="140" height="50" as="geometry"/>
                </mxCell>
                <mxCell id="7" value="while turnCounter &amp;lt;= 3" style="strokeWidth=2;html=1;shape=mxgraph.flowchart.decision;whiteSpace=wrap;" vertex="1" parent="1">
                    <mxGeometry x="575" y="260" width="110" height="110" as="geometry"/>
                </mxCell>
                <mxCell id="8" value="while stepCounter &amp;lt;= 4" style="strokeWidth=2;html=1;shape=mxgraph.flowchart.decision;whiteSpace=wrap;" vertex="1" parent="1">
                    <mxGeometry x="575" y="480" width="110" height="110" as="geometry"/>
                </mxCell>
                <mxCell id="9" value="stepCounter = 0" style="rounded=1;whiteSpace=wrap;html=1;absoluteArcSize=1;arcSize=14;strokeWidth=2;" vertex="1" parent="1">
                    <mxGeometry x="560" y="400" width="140" height="40" as="geometry"/>
                </mxCell>
                <mxCell id="10" value="turningCounter ++" style="rounded=1;whiteSpace=wrap;html=1;absoluteArcSize=1;arcSize=14;strokeWidth=2;" vertex="1" parent="1">
                    <mxGeometry x="780" y="350" width="150" height="50" as="geometry"/>
                </mxCell>
                <mxCell id="11" value="stepCounter ++" style="rounded=1;whiteSpace=wrap;html=1;absoluteArcSize=1;arcSize=14;strokeWidth=2;" vertex="1" parent="1">
                    <mxGeometry x="390" y="700" width="140" height="43.5" as="geometry"/>
                </mxCell>
            </root>
        </mxGraphModel>
    </diagram>
</mxfile>